<svg xmlns="http://www.w3.org/2000/svg" width="80" height="81" viewBox="0 0 80 81" fill="none"><g clip-path="url(#clip0_900_101842)"><path d="M14.0105 47.9135C1.1527 13.6648 52.6308 -1.27086 66.8591 22.248C88.7488 58.4311 27.8735 84.8396 14.0105 47.9135Z" fill="#D9E7FE"></path><path d="M62.1772 32.3543C62.1772 31.3381 61.3198 30.5325 60.3056 30.5959L20.3053 33.0938C19.3767 33.1518 18.6532 33.9219 18.6532 34.8523L18.6532 51.4399C18.6532 52.0601 18.9815 52.6383 19.5192 52.9473C34.7146 61.6816 49.5593 61.2731 61.5952 50.7048C61.9674 50.3779 62.1772 49.9015 62.1772 49.4062L62.1772 32.3543Z" fill="#002E75"></path><path d="M32.4501 56.5127L43.7965 43.7911L18.4119 35.7035L18.412 51.3739C18.412 52.0291 18.7755 52.6302 19.355 52.936C22.7884 54.7481 26.1508 56.538 29.8213 57.3986C30.7903 57.6259 31.7876 57.2555 32.4501 56.5127Z" fill="#001C49"></path><path d="M39.5305 18.7967L74.0088 29.3713C75.0318 29.6851 75.1367 31.0917 74.1716 31.5537L41.9705 46.9691C41.6948 47.1011 41.3785 47.1204 41.0887 47.0229L5.36328 34.9999C4.33953 34.6554 4.28444 33.228 5.27859 32.8056L38.0691 18.8729C38.5321 18.6762 39.0496 18.6492 39.5305 18.7967Z" fill="#003DA1"></path><path d="M47.8242 31.539C51.0628 32.6906 54.857 35.1315 57.1778 36.7465C58.1125 37.3969 57.8845 38.797 56.8047 39.1584L56.1538 39.3763C55.8645 39.4731 55.5519 39.4745 55.2618 39.3802L38.6673 33.9871C37.7822 33.6995 37.4066 32.6539 37.9062 31.8687L39.0433 30.0819C39.3513 29.5979 39.9176 29.3468 40.4791 29.4646C41.8609 29.7544 44.6415 30.4073 47.8242 31.539Z" fill="#1A1E2B"></path><path d="M48.838 43.5905L63.2144 37.098" stroke="#1A1E2B" stroke-width="1.42374" stroke-linecap="round"></path><path d="M40.4522 29.9253C40.4522 29.9253 48.9531 31.2764 54.2264 34.1446C61.2216 37.9493 60.517 50.589 60.517 50.589" stroke="#FA5C86" stroke-width="2.13561" stroke-linecap="round"></path><rect x="56.7314" y="48.0664" width="7.00902" height="7.00901" rx="2.84747" transform="rotate(-15.225 56.7314 48.0664)" fill="#FB517E"></rect><path d="M59.7759 53.2909L63.7214 52.217L73.7424 65.6747C73.9779 65.9909 73.8405 66.4389 73.4626 66.5513C71.8115 67.0421 67.7782 68.0329 64.7378 67.0737C58.6469 65.1521 59.7759 53.2909 59.7759 53.2909Z" fill="#FB517E"></path><path d="M63.3796 58.7805C63.3796 58.7805 63.6076 61.6096 64.3096 63.2473C65.317 65.5976 68.3999 67.3792 68.3999 67.3792" stroke="#C01C48" stroke-width="1.42374" stroke-linecap="round"></path><path d="M62.354 53.4104L59.6452 53.6975" stroke="#C01C48" stroke-width="1.42374" stroke-linecap="round"></path><path d="M30.493 74.0667L31.028 65.5398L23.1276 62.4442L20.446 71.4789C20.2921 71.9972 20.7493 72.491 21.2779 72.3775L25.677 71.4328C25.9112 71.3825 26.1549 71.4533 26.3256 71.6212L29.2834 74.5297C29.7184 74.9575 30.4548 74.6756 30.493 74.0667Z" fill="#FB789B"></path><path d="M49.0145 69.7488L49.5307 66.5069C49.6875 65.5218 49.1416 64.5593 48.2155 64.1885L12.2699 49.7946C11.1234 49.3355 9.82776 49.9416 9.44535 51.1158L7.33887 57.5839C6.96699 58.7258 7.60944 59.9497 8.76049 60.2922L46.2964 71.46C47.5333 71.828 48.8115 71.0233 49.0145 69.7488Z" fill="#5093FD"></path><path d="M8.49793 52.4449L9.52633 46.6226C9.79274 45.1142 11.5113 44.3584 12.8078 45.1739C17.4221 48.0762 26.7428 53.7499 31.4587 55.2914C36.2468 56.8565 44.4348 56.8097 48.287 56.6849C49.4621 56.6468 50.4731 57.5389 50.5531 58.7119L51.0293 65.6918C51.1129 66.9165 50.1508 67.9541 48.9234 67.9319C44.6401 67.8545 35.172 67.4581 28.4972 65.5197C20.3915 63.1657 11.9524 56.6466 9.20834 54.4033C8.62858 53.9293 8.36768 53.1823 8.49793 52.4449Z" fill="#C8DCFE"></path><path d="M15.2256 46.6958C19.584 50.1699 20.628 50.8311 25.6317 53.2863" stroke="#3883FA" stroke-width="1.42374" stroke-linecap="round"></path><path d="M8.28826 53.9803C8.28826 53.9803 20.8542 63.6139 30.9278 66.1978C38.0986 68.0371 49.8242 67.7053 49.8242 67.7053" stroke="#003DA1" stroke-width="1.42374" stroke-linecap="round"></path><path d="M31.0288 67.2495L22.3979 64.5382L21.6452 67.4422L30.6481 70.6874L31.0288 67.2495Z" fill="#C01C48"></path><path d="M31.9139 66.9644L32.6964 55.1294C32.7181 54.8007 32.5114 54.4999 32.1967 54.4025L27.1492 52.8391C26.805 52.7325 26.4355 52.8998 26.2886 53.2288L21.5526 63.8308C21.3786 64.2203 21.584 64.6743 21.9914 64.8009L30.9924 67.5973C31.432 67.7338 31.8836 67.4237 31.9139 66.9644Z" fill="#FB789B"></path><path d="M50.6357 58.1143V66.7532" stroke="#3883FA" stroke-width="1.42374" stroke-linecap="round"></path><path d="M6.77637 35.519L40.003 46.8161" stroke="#0064E1" stroke-width="1.42374" stroke-linecap="round"></path></g><defs><clipPath id="clip0_900_101842"><rect width="80" height="80" fill="white" transform="translate(0 0.985352)"></rect></clipPath></defs></svg>