<svg xmlns="http://www.w3.org/2000/svg" width="80" height="81" viewBox="0 0 80 81" fill="none"><g clip-path="url(#clip0_900_101848)"><path d="M48.7922 71.2263C69.5025 66.7037 76.5806 33.3266 59.7567 21.3671C42.7577 9.28327 10.7771 27.4711 13.064 47.7377C14.9097 64.0935 31.9044 74.9142 48.7922 71.2263Z" fill="#E6EFFF"></path><path d="M70.9441 35.3585C69.3296 35.0741 67.9081 35.9085 67.1245 36.5126C66.8517 36.7229 66.3768 36.5764 66.2615 36.2519C65.9385 35.3427 65.1811 33.939 63.4972 33.3969C58.5917 31.8179 55.3009 36.3862 56.1028 40.9929C56.9737 45.9964 63.0465 52.0503 63.0465 52.0503C63.0465 52.0503 72.5281 48.7631 74.746 43.516C76.552 39.2436 75.0516 36.0819 70.9441 35.3585Z" fill="#FC8BA9"></path><path d="M72.1754 45.1172C73.6581 44.7149 65.0561 51.301 62.7447 50.1312C59.8446 48.6635 69.1757 45.931 72.1754 45.1172Z" fill="#FB517E"></path><path d="M59.1955 34.7479C57.4223 35.7334 56.7939 38.3185 57.4267 39.3918C58.0317 40.418 64.5909 37.3254 63.7146 35.3805C62.9434 33.6688 60.8101 33.8504 59.1955 34.7479Z" fill="#FDB2C6"></path><path d="M34.5278 46.1333L22.596 33.6909L4.61315 50.9358C3.97827 51.5447 4.26091 52.6142 5.11368 52.8299L13.0089 54.8269L14.6736 62.7988C14.8534 63.6599 15.9101 63.9871 16.545 63.3782L34.5278 46.1333Z" fill="#1E6DEB"></path><path d="M6.79177 49.0484L21.0226 52.8868L19.9872 35.9963L6.79177 49.0484Z" fill="#0247B8"></path><path d="M20.4175 42.0671L37.6006 40.6811L39.6039 65.5157C39.6746 66.3924 38.7533 67.0048 37.9723 66.6L30.7416 62.853L24.2051 67.7106C23.499 68.2353 22.4915 67.7785 22.4208 66.9017L20.4175 42.0671Z" fill="#1E6DEB"></path><path d="M21.3916 53.0378L19.8229 43.6983L38.2123 45.9661L39.0287 57.8208L21.3916 53.0378Z" fill="#0247B8"></path><path d="M21.681 59.0628L21.0142 53.8032" stroke="#00307A" stroke-width="1.28382" stroke-linecap="round"></path><path d="M39.6634 12.7995C42.9888 11.7431 46.4515 13.9852 46.8483 17.4517L47.0242 18.9886C47.2342 20.8225 48.3432 22.4315 49.9823 23.2802L51.356 23.9915C54.4544 25.596 55.3175 29.6298 53.1469 32.3616L52.1845 33.5728C51.0362 35.0179 50.6827 36.9399 51.2416 38.6991L51.7099 40.1734C52.7663 43.4988 50.5243 46.9615 47.0577 47.3583L45.5209 47.5342C43.687 47.7441 42.078 48.8532 41.2292 50.4923L40.5179 51.8659C38.9135 54.9644 34.8796 55.8275 32.1478 53.6568L30.9367 52.6945C29.4915 51.5462 27.5696 51.1927 25.8104 51.7515L24.3361 52.2199C21.0107 53.2763 17.548 51.0342 17.1512 47.5677L16.9753 46.0308C16.7653 44.197 15.6563 42.588 14.0172 41.7392L12.6435 41.0279C9.54511 39.4235 8.682 35.3896 10.8526 32.6578L11.815 31.4467C12.9633 30.0015 13.3168 28.0795 12.7579 26.3204L12.2896 24.8461C11.2332 21.5207 13.4752 18.058 16.9418 17.6612L18.4786 17.4852C20.3125 17.2753 21.9215 16.1663 22.7703 14.5272L23.4816 13.1535C25.086 10.0551 29.1199 9.19197 31.8517 11.3626L33.0628 12.3249C34.508 13.4732 36.4299 13.8268 38.1891 13.2679L39.6634 12.7995Z" fill="#3280FB"></path><circle cx="31.8818" cy="32.3029" r="15.4898" transform="rotate(37.9686 31.8818 32.3029)" fill="#0247B8"></circle><path d="M46.8831 28.9447C48.4887 37.3475 42.9785 45.4608 34.5758 47.0664C26.173 48.672 18.0597 43.1618 16.4541 34.759" stroke="#00307A" stroke-width="1.28382" stroke-linecap="round"></path><path d="M29.1555 36.382C29.1354 36.898 29.4283 37.3753 29.8974 37.591V37.591C30.7374 37.9773 31.6965 37.3697 31.7062 36.4452L31.8105 26.5204C31.8158 26.0141 31.523 25.552 31.063 25.3405L30.1638 24.927C29.7033 24.7153 29.1613 24.7943 28.7804 25.1287L21.2925 31.7032C20.614 32.299 20.774 33.396 21.5944 33.7733V33.7733C22.0529 33.9841 22.5933 33.8977 22.9634 33.5545L23.6974 32.8736C24.0784 32.5202 24.6347 32.4313 25.1068 32.6483L28.4473 34.1843C28.9194 34.4014 29.2141 34.8816 29.1938 35.4008L29.1555 36.382ZM26.291 30.9461C26.1351 30.8744 26.1021 30.6673 26.228 30.5508L29.0691 27.919C29.2264 27.7733 29.4814 27.8906 29.4732 28.1049L29.3249 31.9747C29.3183 32.1462 29.1397 32.2559 28.9838 32.1842L26.291 30.9461Z" fill="#9DC3FF"></path><path d="M41.7146 36.6313C41.9481 36.1233 41.7257 35.5222 41.2177 35.2886L39.7325 34.6057C39.6117 34.5502 39.5588 34.4073 39.6144 34.2865L40.2453 32.9144C40.4922 32.3773 40.257 31.7416 39.7199 31.4947V31.4947C39.1828 31.2477 38.5471 31.4829 38.3001 32.02L37.6693 33.3921C37.6137 33.5129 37.4708 33.5658 37.35 33.5103L35.8799 32.8343C35.3719 32.6007 34.7708 32.8232 34.5372 33.3312V33.3312C34.3036 33.8392 34.5261 34.4403 35.0341 34.6739L36.5042 35.3498C36.6249 35.4054 36.6778 35.5483 36.6223 35.6691L35.9914 37.0412C35.7444 37.5783 35.9797 38.2139 36.5168 38.4609V38.4609C37.0539 38.7079 37.6896 38.4727 37.9365 37.9355L38.5674 36.5635C38.623 36.4427 38.7659 36.3898 38.8867 36.4453L40.3718 37.1282C40.8798 37.3618 41.481 37.1393 41.7146 36.6313V36.6313Z" fill="#9DC3FF"></path><path d="M62.2554 55.6882C63.0919 55.0887 64.2583 55.6678 64.2866 56.6965L64.3492 58.977C64.3601 59.3725 64.5527 59.7408 64.8712 59.9755L66.7081 61.3284C67.5367 61.9387 67.3465 63.227 66.3769 63.5718L64.2273 64.3361C63.8545 64.4686 63.5637 64.7656 63.439 65.141L62.7199 67.3062C62.3955 68.2828 61.1115 68.4999 60.484 67.6843L59.0928 65.8761C58.8516 65.5626 58.4793 65.3778 58.0837 65.3752L55.8023 65.3603C54.7732 65.3536 54.1699 64.1996 54.7517 63.3507L56.0415 61.4689C56.2651 61.1426 56.3259 60.7314 56.2061 60.3543L55.5152 58.18C55.2036 57.1993 56.1148 56.2688 57.1018 56.5598L59.2901 57.205C59.6696 57.3169 60.0794 57.2475 60.401 57.0171L62.2554 55.6882Z" fill="#FFCC60"></path><path d="M61.6873 66.5905L62.907 64.0423C63.0332 63.7786 63.2456 63.5659 63.5091 63.4393L65.1305 62.6603C65.4837 62.4906 65.4971 61.9926 65.1535 61.8042L64.5836 61.4918C64.1961 61.2794 63.7266 61.2812 63.3407 61.4966L59.9598 63.384C59.2298 63.7916 59.0779 64.7772 59.6515 65.3857L60.9028 66.7129C61.1347 66.9589 61.5414 66.8955 61.6873 66.5905Z" fill="#E86F3C"></path><circle cx="50.9714" cy="69.9175" r="2.56764" fill="#5C9BFF"></circle><circle cx="48.0828" cy="60.6097" r="1.60477" fill="#5C9BFF"></circle><circle cx="66.0564" cy="27.2303" r="1.60477" fill="#5C9BFF"></circle></g><defs><clipPath id="clip0_900_101848"><rect width="80" height="80" fill="white" transform="translate(0 0.985352)"></rect></clipPath></defs></svg>