<svg xmlns="http://www.w3.org/2000/svg" width="80" height="81" viewBox="0 0 80 81" fill="none"><g clip-path="url(#clip0_900_101854)"><path d="M23.0831 70.977C8.9941 63.4372 2.47576 44.719 9.66019 29.6774C15.4367 17.5835 27.5602 8.31489 40.1884 9.59869C55.8216 11.188 75.3914 34.6611 72.5486 51.107C69.2614 70.1235 37.0955 78.4758 23.0831 70.977Z" fill="#E6EFFF"></path><g clip-path="url(#clip1_900_101854)"><path d="M23.6163 36.8395L4.81049 30.0874C4.60003 30.0119 4.36776 30.1222 4.29746 30.3345C2.4033 36.053 3.13389 42.0747 5.27574 47.8787C5.31549 47.9864 5.39978 48.0718 5.50674 48.1135L19.962 53.7469L25.7034 55.8553C31.6309 57.3353 37.562 58.0569 43.5042 60.2049C44.4863 60.5599 45.2874 60.6464 46.1564 60.2281C46.8062 59.9153 47.1814 59.3184 47.3699 58.9203C47.4693 58.7104 47.712 58.584 47.9381 58.6375C48.6187 58.7984 49.9681 58.9876 50.6183 58.1781C50.9579 57.7554 51.1584 57.2412 51.2677 56.8785C51.3393 56.6413 51.5949 56.4868 51.8393 56.5275C52.3877 56.6187 53.3015 56.6504 53.8641 56.0247C54.2417 55.6048 54.4298 55.1689 54.5224 54.8656C54.5879 54.651 54.7916 54.483 55.0158 54.4768C55.5696 54.4614 56.5572 54.3344 57.127 53.6702C58.1397 52.4899 57.5338 51.1718 57.3933 50.9047C57.3759 50.8714 57.3526 50.8429 57.3252 50.8172L50.0453 44.0019C50.0098 43.9687 49.9685 43.9421 49.9235 43.9235L40.7591 40.1412C40.734 40.1308 40.7079 40.123 40.6812 40.1179L23.6766 36.8561C23.6561 36.8521 23.636 36.8466 23.6163 36.8395Z" fill="#DBB393"></path><path d="M23.1563 49.1508C24.7114 46.4116 29.1925 44.8075 29.1925 44.8075L31.937 45.8506L25.6401 55.6359L21.5062 54.2722C21.5062 54.2722 22.1388 50.9432 23.1563 49.1508Z" fill="#D89464"></path><path d="M3.74855 39.4041L17.9926 52.7589C17.9926 52.7589 6.54438 49.3561 5.44145 48.048C4.33852 46.7398 3.74855 39.4041 3.74855 39.4041Z" fill="#D89464"></path><mask id="mask0_900_101854" style="mask-type:alpha" maskUnits="userSpaceOnUse" x="22" y="32" width="41" height="31"><path d="M53.4658 35.8158L59.11 34.3414C59.3333 34.2831 59.56 34.4238 59.6068 34.6498L62.6799 49.4865C62.7247 49.7028 62.5878 49.9149 62.3722 49.9631C60.6227 50.3543 53.5188 51.9708 52.5522 52.6363C51.4646 53.3851 40.8779 61.4101 40.5718 61.6421C40.5621 61.6495 40.5616 61.6504 40.5525 61.6584C40.3984 61.7941 38.8467 63.1149 37.3625 62.6553C36.8628 62.5006 36.0009 61.7523 35.6105 61.3968C35.487 61.2843 35.3085 61.2548 35.1537 61.3174C34.6172 61.5344 33.3613 61.9702 32.6719 61.6158C32.0196 61.2806 31.5599 60.7784 31.3206 60.4721C31.2026 60.3211 31.0008 60.2494 30.8167 60.3022C30.1865 60.483 28.7443 60.8094 27.7931 60.3469C26.9129 59.919 26.6912 59.3427 26.4466 58.5115C26.3796 58.2841 26.1319 58.1602 25.904 58.2253C25.4218 58.3629 24.6193 58.5263 24.0178 58.3182C22.8497 57.914 22.0631 56.8713 22.6019 55.4231C23.1407 53.975 24.7425 52.0207 26.2192 49.5415C30.216 42.8317 38.1238 34.178 39.1561 33.0585C39.2293 32.9792 39.3289 32.9357 39.4368 32.9326L42.954 32.8315C42.9961 32.8303 43.0381 32.8357 43.0785 32.8474L53.251 35.8128C53.321 35.8332 53.3952 35.8342 53.4658 35.8158Z" fill="#9E6D5C"></path></mask><g mask="url(#mask0_900_101854)"><rect width="42.9182" height="36.787" transform="matrix(-0.996398 -0.0847967 -0.0847967 0.996398 65.9658 31.501)" fill="#B28171"></rect><path d="M20.5597 59.0227C20.5597 59.0227 28.6317 49.6826 32.762 48.6367C36.3394 47.7307 47.9739 48.431 50.9807 52.9199C54.3685 57.9776 47.0914 66.2915 47.0914 66.2915L20.5597 59.0227Z" fill="#A85E48"></path></g><path d="M35.9399 61.3533L42.3003 54.1003" stroke="#542012" stroke-width="1.29054" stroke-linecap="round"></path><path d="M31.1221 60.1229L37.5518 52.0554" stroke="#542012" stroke-width="1.29054" stroke-linecap="round"></path><path d="M26.4078 57.6709L32.3608 50.3833" stroke="#542012" stroke-width="1.29054" stroke-linecap="round"></path><path d="M58.0358 50.7029L56.7384 35.0332L58.1982 34.5266L62.344 50.0182L58.0358 50.7029Z" fill="#A85E48"></path><path d="M46.9138 41.0897C47.0436 39.5651 40.8639 37.5036 39.2357 37.365C37.6074 37.2264 30.9663 42.9958 30.869 44.1392C30.7717 45.2827 46.7841 42.6143 46.9138 41.0897Z" fill="#A85E48"></path><rect x="56.9414" y="31.8892" width="8.46919" height="20.9713" rx="0.80659" transform="rotate(-12.7745 56.9414 31.8892)" fill="white"></rect><path d="M60.2198 46.4365L68.1797 43.2688L68.3507 50.7712L62.1327 52.2722C61.8031 52.3517 61.4725 52.1449 61.3999 51.8138L60.2198 46.4365Z" fill="#9DC3FF"></path><path d="M63.4044 28.7698C63.3059 28.3353 63.5783 27.9033 64.0127 27.8048L72.4636 25.8888C72.924 25.7844 73.3753 26.096 73.4408 26.5635L76.7781 50.3901C76.8305 50.7641 76.6163 51.1244 76.2628 51.2571L69.9772 53.6168C69.5195 53.7887 69.0153 53.5169 68.9071 53.04L63.4044 28.7698Z" fill="#00307A"></path><path d="M38.2931 31.8478C39.1808 32.2267 45.1414 37.2447 47.5764 39.3106C48.129 39.7794 48.1347 40.6169 47.5335 41.0214C46.7437 41.553 45.6293 42.1431 44.5745 42.1431C41.577 42.1432 38.1274 38.3409 38.1274 38.3409C38.1274 38.3409 34.4752 42.9922 31.4156 44.4683C29.0417 45.6135 26.5839 42.1431 26.5839 42.1431L22.5708 37.017C22.5708 37.017 32.2909 31.9111 34.8361 31.5535C35.8046 31.4175 37.1731 31.3697 38.2931 31.8478Z" fill="#DBB393"></path><path d="M38.0117 38.6777L37.4733 38.3219C37.5752 38.1678 37.7382 38.0647 37.9211 38.0388C38.104 38.0128 38.2893 38.0665 38.4299 38.1863L38.0117 38.6777ZM34.673 42.2387L35.0671 42.7496L34.673 42.2387ZM29.9636 45.4821C29.6196 45.5751 29.2654 45.3716 29.1724 45.0275C29.0795 44.6835 29.283 44.3292 29.627 44.2363L29.9636 45.4821ZM44.8974 41.6541C45.2486 41.7148 45.484 42.0487 45.4233 42.3999C45.3626 42.7511 45.0287 42.9865 44.6775 42.9258L44.8974 41.6541ZM38.0117 38.6777C38.5501 39.0334 38.55 39.0335 38.5499 39.0336C38.5499 39.0336 38.5498 39.0337 38.5498 39.0338C38.5497 39.034 38.5495 39.0342 38.5494 39.0345C38.549 39.0349 38.5486 39.0355 38.5482 39.0363C38.5472 39.0377 38.5459 39.0397 38.5443 39.0421C38.541 39.0469 38.5365 39.0537 38.5307 39.0622C38.5191 39.0794 38.5025 39.1038 38.4809 39.1349C38.4376 39.1972 38.3747 39.2863 38.2932 39.3975C38.1303 39.6196 37.8929 39.9305 37.591 40.2909C36.9894 41.0091 36.1214 41.9364 35.0671 42.7496L34.2789 41.7277C35.2353 40.99 36.0366 40.1368 36.6017 39.4622C36.8832 39.1262 37.1034 38.8376 37.2524 38.6344C37.3268 38.5329 37.3833 38.4529 37.4206 38.3992C37.4392 38.3723 37.453 38.3521 37.4619 38.339C37.4663 38.3325 37.4695 38.3277 37.4714 38.3248C37.4724 38.3234 37.473 38.3225 37.4733 38.322C37.4735 38.3217 37.4736 38.3216 37.4736 38.3216C37.4736 38.3216 37.4736 38.3216 37.4735 38.3217C37.4735 38.3217 37.4734 38.3218 37.4734 38.3218C37.4734 38.3219 37.4733 38.3219 38.0117 38.6777ZM35.0671 42.7496C33.7211 43.7879 32.4569 44.4675 31.5254 44.8887C31.0593 45.0995 30.6756 45.246 30.4053 45.3407C30.2701 45.3881 30.1631 45.4225 30.0882 45.4455C30.0508 45.4571 30.0214 45.4658 30.0004 45.4718C29.99 45.4748 29.9817 45.4772 29.9755 45.4789C29.9724 45.4797 29.9699 45.4804 29.9679 45.481C29.9669 45.4813 29.9661 45.4815 29.9654 45.4817C29.965 45.4818 29.9647 45.4819 29.9644 45.4819C29.9643 45.482 29.9641 45.482 29.964 45.4821C29.9638 45.4821 29.9636 45.4821 29.7953 44.8592C29.627 44.2363 29.6269 44.2363 29.6267 44.2364C29.6267 44.2364 29.6266 44.2364 29.6265 44.2364C29.6263 44.2365 29.6262 44.2365 29.6262 44.2365C29.626 44.2366 29.626 44.2366 29.6261 44.2365C29.6263 44.2365 29.6271 44.2363 29.6284 44.2359C29.631 44.2352 29.6358 44.2338 29.6427 44.2318C29.6564 44.2279 29.6785 44.2214 29.7084 44.2121C29.7683 44.1937 29.8597 44.1644 29.9787 44.1227C30.2168 44.0393 30.5651 43.9066 30.9936 43.7128C31.8512 43.3251 33.0258 42.6944 34.2789 41.7277L35.0671 42.7496ZM38.4299 38.1863C39.7584 39.317 40.6503 40.0477 41.5732 40.569C42.4766 41.0792 43.4345 41.4011 44.8974 41.6541L44.6775 42.9258C43.1154 42.6556 42.0063 42.2957 40.9386 41.6927C39.8904 41.1007 38.9069 40.2869 37.5935 39.169L38.4299 38.1863Z" fill="#764123"></path><circle r="1.61318" transform="matrix(-0.996398 -0.0847967 -0.0847967 0.996398 64.5381 48.0184)" stroke="#3280FB" stroke-width="1.29054"></circle><path d="M39.0555 24.7639L38.673 21.8811" stroke="#1E6DEB" stroke-width="1.29054" stroke-linecap="round"></path><path d="M35.1601 26.5495L33.3171 24.5059" stroke="#1E6DEB" stroke-width="1.29054" stroke-linecap="round"></path><path d="M43.1344 25.6962L44.2862 23.855" stroke="#1E6DEB" stroke-width="1.29054" stroke-linecap="round"></path></g></g><defs><clipPath id="clip0_900_101854"><rect width="80" height="80" fill="white" transform="translate(0 0.985352)"></rect></clipPath><clipPath id="clip1_900_101854"><rect width="80.6589" height="80.6589" fill="white" transform="translate(-1.33301 0.985352)"></rect></clipPath></defs></svg>