<svg width="265" height="162" fill="none" xmlns="http://www.w3.org/2000/svg"><g fill="#DEEFFC"><path d="M36.621 153.919c2.1626 1.034 4.335 1.975 6.5074 2.88H178.538c13.2-4.702 25.981-12.297 36.551-26.57 15.129-20.434 24.062-58.55 15.47-88.401-4.764-16.5537-14.116-28.0756-24.218-33.73066-10.102-5.6551-20.916-5.99605-31.495-4.62048-19.483 2.5395-38.655 10.73414-56.58 24.17234-13.015 9.7347-25.9128 22.4322-40.0188 22.7262-10.5502.2233-20.6719-6.5487-30.9591-10.5813-10.2872-4.0326-21.8896-5.0202-30.5597 5.467C-9.75926 77.2518 12.9779 142.667 36.621 153.919zM81.0242.0169688C85.7697.209727 90.679 2.5728 92.5387 6.74209c1.9309 4.34781-.0713 9.73791-4.0329 12.57211-7.5671 5.4187-21.0196 2.306-24.4754-6.3539C60.2469 3.55087 73.4215-.290017 81.0242.0169688z"/></g><path d="M136.332 104.056c-.245-1.216-6.467-11.2008-7.418-11.9614-1.073-.5859-2.211-1.0437-3.39-1.3638-1.112-.4978-2.27-.8829-3.459-1.1495-1.212-.1384-2.433-.1905-3.653-.1559-1.217 0-2.396.1266-3.546.1461-1.149.0195-2.396 0-3.546 0-1.149 0-2.396.2436-3.536.3215-1.14.0779-2.396.1753-3.526.302-1.131.1266-2.416.1169-3.537.302-1.12.1851 7.721 22.855 6.62 23.128-1.174.178 29.236-8.354 28.991-9.569z" fill="#F35C39"/><path d="M111.749 83.8826l-1.948 6.6049c-.188 1.899.484 3.7825 1.831 5.1338 1.089 1.0036 2.44 1.679 3.897 1.9484 2.367.6624 4.783-.2241 6.877-1.4126 2.484-1.4028 7.346-12.9369 7.872-13.5799 1.836-2.2491 2.692-5.141 2.377-8.0272-.439-3.6239-2.543-7.1601-4.56-10.1216-1.764-2.6678-4.051-4.951-6.721-6.712.038-.1974-.08-.3915-.273-.4481-.319-.1072-.645-.195-.974-.2631-.08-.0466-.172-.067-.263-.0584-4.179-.867-8.281 1.1787-11.155 4.2669-1.412 1.5197-2.64 3.1465-2.805 5.2702-.244 2.4938-.039 5.0112.604 7.4329-.007.0387-.007.0783 0 .1169-1.405 1.2564-1.94 3.2221-1.364 5.017.867 2.5913 3.77 5.1534 6.605 4.8319z" fill="#F8BBB4"/><path d="M130.278 82.6162s-5.66 3.8382-8.144 2.6498c0 0 0 4.6857 5.036 2.9225l3.108-5.5723zM106.771 79.2553c-.127-.5358.516-1.3249.809-1.7048.126-.1559.438-.1851.506 0 .348 1.1001.952 2.1019 1.763 2.9225.263.2727-.175.6527-.438.3799-.365-.3508-.692-.7394-.974-1.1593-.058.0601-.141.0891-.224.078-.409-.078-1.315.0682-1.442-.5163z" fill="#B3807A"/><path d="M1.7457 11.1122c-.53163 1.4216-.916797 2.8937-1.149519 4.3935-1.03262 5.845-.925461 12.1966 1.948339 17.5351 2.32827 4.1986 5.95218 7.3744 9.60528 10.3943 6.6828 5.5431 13.3267 9.9561 21.9968 11.466 9.2351 1.5977 18.0026-2.3185 27.2767-1.8412 4.9586.2631 8.5922 2.5134 12.7909 4.8709 3.5752 2.0165 7.0335 2.8251 10.9691 1.3736 2.1822-.8086 4.2182-2.075 6.4978-2.6303 2.1168-.4755 4.3347-.1492 6.2249.9157 2.923 1.4808 5.845 3.8967 9.264 3.5655-1.821 3.2245-2.474 7.4524-2.698 10.7841-.02.1094-.02.2217 0 .3312h-.059c.069 0 .137 3.4583.205 3.4972 1.335-.4189 3.439-3.4388 4.588-4.5883 1.501-.8086 2.65-2.8153 3.77-4.1013 1.949-2.2893 1.949-5.2605 1.695-8.1245 2.737.6233 5.509 1.082 8.3 1.3736.228-.1351.432-.3062.604-.5066.332-.3799.663-.7696.975-1.1301-.049-.0454-.105-.0818-.166-.1071-4.384-1.8899-9.742-3.8967-14.164-.9742-.81.5334-1.53 1.1909-2.134 1.9484-.214-.0975-.419-.2046-.604-.3118-.662-4.1811-2.805-7.9847-6.04-10.7158-3.9841-3.3609-8.5919-3.624-13.492-4.5592-5.4359-.9741-8.0856-4.3935-10.8328-8.8357-2.1919-3.546-4.5494-7.0237-8.6506-8.485-4.1013-1.4613-8.6799-.9742-12.9565-1.8801-5.3287-1.1009-8.2317-5.0755-11.5244-9.0209C38.3842 9.1736 30.6298 3.86437 21.7259 2.89994c-4.2591-.50157-8.576.07111-12.55703 1.66583C5.01891 6.26083 2.92445 8.02408 1.7457 11.1122z" fill="#05293C"/><path d="M46.4114 44.4288s-4.1792-5.017-5.962-7.4816c-1.7827-2.4647-4.0817-5.4067-5.2215-7.4037-1.1398-1.9971-2.6011-6.0983-3.3219-5.8937-.7209.2045.2727 4.5591 0 5.3482-.2728.789-1.9484-2.0555-2.9225-3.7993-.9742-1.7438-3.1466-5.7281-3.6532-5.0754-.5066.6527.9742 3.8966 1.2567 4.6955.2825.7988 1.1203 3.1271.1656 1.7632-.9547-1.3638-3.3706-5.5235-4.072-5.4164-.7014.1072.9741 3.7019 1.5099 4.9391.5358 1.2372.7989 3.2634-.6721.7598-1.471-2.5036-2.9225-4.1986-3.2538-3.809-.3312.3897.3118 2.0847.9742 3.3901.6624 1.3054 1.2372 3.2927.2825 1.9484-.9547-1.3444-2.8153-3.8188-3.0881-3.1174-.2728.7014 16.6388 29.6538 16.6388 29.6538l11.3394-10.5016z" fill="#F8BBB4"/><path d="M31.7306 30.2544c.1924 1.7288.7681 3.3928 1.6853 4.8708M27.9606 28.0625c0 .2825-5.4651 3.0686-5.4651 3.0686" stroke="#000" stroke-width=".565018" stroke-linecap="round"/><path d="M108.495 114.247c.624-1.636-.273-1.198-.682-3.39-.185-.974-.136-2.172-.448-3.478-.243-1.032-.477-2.182-.828-3.399-.302-1.053-.565-2.202-.974-3.371-.409-1.1691-1.042-2.0556-1.471-3.1856-.429-1.1301-.585-2.2406-1.062-3.3512-.477-1.1105-.974-2.1042-1.442-3.1855-.467-1.0813-1.198-1.9484-1.7434-3.0492-.5456-1.1008-1.2567-1.9483-1.8509-2.9225-.5943-.9741-1.0327-2.0652-1.6756-3.0783-.643-1.0132-1.0716-2.0555-1.7438-3.0297-.6722-.9742-1.4515-1.812-2.1626-2.7569-.7112-.945-1.247-1.9484-1.9484-2.9225-.7014-.9742-1.8119-1.5295-2.601-2.416-.7891-.8865-1.3444-1.9483-2.1627-2.7666s-1.5684-1.7145-2.4354-2.5329c-.867-.8183-1.8314-1.4417-2.7179-2.2113-.8865-.7696-1.7828-1.4418-2.7082-2.1724-.9255-.7306-1.9484-1.2275-2.9225-1.9484-.9742-.7208-1.6464-1.656-2.6011-2.3185-.9546-.6624-2.036-1.1203-3.0004-1.7535-.9644-.6332-1.8801-1.3541-2.8641-1.9483-.9839-.5943-1.8996-1.3541-2.8738-1.9484-.9741-.5942-2.1139-.9741-3.0978-1.5879-.9839-.6137-1.9484-1.3248-2.9225-1.8801-.9742-.5553-2.2309-.8573-3.205-1.3833-.9742-.5261-1.9484-1.3054-2.9226-1.812-.9741-.5066-2.1821-1.0521-3.1076-1.5197-.9254-.4676-1.6853-.9742-2.3672-1.2859-1.5392-.7598-1.0618-1.4807-2.3283-.9742-1.1763.446-2.282 1.0596-3.2829 1.8217-1.6171.9742-1.6853.8865-3.3024 1.8899-1.6172 1.0034-1.5295 1.1495-3.1369 2.1919-1.6073 1.0424-1.5489 1.1203-3.166 2.1237-1.6171 1.0034-1.6269.9742-3.2635 1.9483.1851-.2045.8183.7989 1.7243 2.9225.3994.9742.5845 2.1724 1.0911 3.4389.4091 1.0326 1.091 2.0652 1.5489 3.2537s.7306 2.2406 1.1787 3.4096c.4482 1.169.9742 2.1529 1.4321 3.3024.4578 1.1495.5747 2.338.9741 3.4681.3994 1.13.9742 2.1918 1.4223 3.3121.4481 1.1203.7988 2.2796 1.2275 3.3902.4286 1.1105 1.13 2.1626 1.5586 3.2634.4287 1.1008.9742 2.2309 1.4223 3.3122.4482 1.0813.6138 2.4159 1.0619 3.4583.4968 1.208 1.0716 2.2796 1.5197 3.2635.5942 1.3151 1.2469 2.338 1.7048 3.166.5845 1.0814.9742 2.2406 1.5976 3.2245.6235.9839 1.4126 1.9484 2.0945 2.9225.6819.9744 1.3249 2.0454 2.0555 2.9224.7306.877 1.734 1.705 2.5328 2.562.7988.857 1.7146 1.695 2.5718 2.484.8573.789 1.6659 1.773 2.5913 2.494.9255.721 2.0945 1.228 3.0687 1.88.9741.653 1.9483 1.481 2.9225 2.056.9741.575 2.1724 1.052 3.2342 1.549 1.0619.497 2.1334 1.179 3.2343 1.588 1.1008.409 2.3087.75 3.429 1.081 1.1203.331 2.377.497 3.507.74 1.1301.244 2.4062.38 3.5363.546 1.13.166 2.4354.253 3.5557.341 1.2859.088 2.4744.497 3.5752.506 1.3541 0 2.5523-.467 3.5655-.535 1.1696-.208 2.3666-.208 3.5362 0 1.773.253 1.2177.233 3.507-.263 1.1841-.144 2.3381-.472 3.4191-.975 1.055-.561 2.059-1.213 3.001-1.948.917-.798 1.792-1.643 2.62-2.533z" fill="#F35C39"/><path d="M100.001 93.6342c-1.542 2.0348-3.3029 3.8936-5.2513 5.543-.9741.7891-2.0555 1.4998-3.0296 2.3188-.9612.828-1.8721 1.713-2.7277 2.649-.867.975-1.7535 1.861-2.6985 2.709-.9449.847-1.8801 1.714-2.9225 2.503-1.9959 1.62-4.222 2.933-6.6048 3.897l-.0682-.117c1.9483-1.627 3.8382-3.273 5.7768-4.871.9742-.799 1.9483-1.568 2.9225-2.348.9742-.779 1.9483-1.548 3.0394-2.289 1.0303-.738 2.0069-1.549 2.9225-2.426.906-.886 1.7048-1.8894 2.5718-2.8149.8857-.9036 1.8224-1.7558 2.8056-2.5523.979-.8184 2.0141-1.5671 3.0979-2.2406l.1661.039zM59.8063 109.893c3.4388-1.948 6.6146-4.131 9.9073-6.245.8475-.496 1.6853-.974 2.5036-1.539s1.6756-.974 2.4646-1.607c1.5899-1.1516 3.1091-2.3975 4.5494-3.7312 2.9225-2.6498 5.845-5.2216 8.7675-7.7934 2.9226-2.5718 6.0204-5.0267 9.167-7.4037l.0974.0974c-2.5943 2.9678-5.373 5.7692-8.3194 8.3876-1.471 1.3054-3.0102 2.5426-4.5494 3.7701-1.5392 1.2274-3.0784 2.4257-4.7052 3.507-1.6269 1.0813-3.205 2.2796-4.7442 3.5072-1.5392 1.227-3.0102 2.542-4.5981 3.721-1.5941 1.173-3.2671 2.234-5.0072 3.176-.8865.448-1.773.877-2.679 1.286-.906.409-1.8704.691-2.8056.974l-.0487-.107zM89.0313 71.5105c-3.1173 2.7861-6.3321 5.3969-9.6638 7.8713-1.695 1.208-3.429 2.3672-5.0754 3.6336-1.6244 1.2966-3.1788 2.6786-4.6565 4.1403l-4.4617 4.3448-4.3935 4.3837c-2.9225 2.9225-5.845 5.8448-8.5435 9.0108l-.1071-.078c2.1094-3.626 4.6726-6.9682 7.6277-9.9459 2.9366-2.9767 6.0814-5.7406 9.4105-8.2707 1.6366-1.2859 3.2927-2.5426 4.8708-3.8967 1.5782-1.3541 3.0784-2.8153 4.6566-4.1792 1.5781-1.3638 3.2732-2.5815 4.978-3.7798 1.7093-1.199 3.478-2.311 5.2995-3.3316l.0584.0974zM80.5463 63.2985l-4.6857 3.7311c-1.5587 1.2469-3.1076 2.4939-4.6761 3.7116-1.5684 1.2177-3.2245 2.3672-4.7344 3.6726-.7501.6819-1.471 1.3833-2.1529 2.0653-.682.6819-1.3834 1.4807-2.0555 2.2405-2.6011 3.0297-5.2216 6.0204-7.6862 9.1475-2.4647 3.1271-4.9878 6.1957-7.5693 9.2838l-.1169-.0682c1.8711-3.5695 4.0691-6.9579 6.5659-10.1216 2.5154-3.1473 5.2884-6.08 8.2902-8.7675.7403-.6819 1.5002-1.3346 2.2211-2.0263.7208-.6916 1.4904-1.3443 2.2016-2.0652 1.4515-1.3833 2.8251-2.8543 4.3253-4.2084 3.0088-2.6888 6.3757-4.9477 10.0047-6.7121l.0682.1169zM68.8758 54.677c-2.3185 2.4744-4.7053 4.8709-7.2186 7.053l-1.9484 1.6171c-.6526.5358-1.3053 1.0814-1.9483 1.6659-1.2116 1.1695-2.3502 2.4123-3.4096 3.7213-2.1139 2.6205-4.3156 5.1534-6.4782 7.7252-2.1627 2.5718-4.4617 5.0169-6.8777 7.4037l-.0779-.078c1.7336-2.8995 3.6877-5.6613 5.845-8.2609 1.0814-1.2957 2.2406-2.5329 3.4096-3.7506 1.169-1.2177 2.4355-2.4062 3.7019-3.546 1.2664-1.1397 2.4744-2.299 3.6336-3.5265 1.1593-1.2274 2.2211-2.5523 3.3901-3.7797 1.1771-1.2145 2.4298-2.3533 3.7506-3.4096 1.3125-1.0711 2.6993-2.0477 4.15-2.9225l.0779.0876zM58.1209 48.1793c-2.036 1.6172-3.9941 3.2635-6.0691 4.7929-1.0716.7307-2.1724 1.4223-3.1855 2.2406-.9872.8378-1.9059 1.7532-2.7472 2.7375-.8573.9741-1.6853 1.9483-2.5815 2.9225-.8963.9741-1.7048 1.9483-2.6206 2.8543-.9157.906-1.7924 1.8509-2.7471 2.7374-.9547.8865-1.8802 1.7925-2.9225 2.6303l-.078-.1169c1.38-2.2232 2.9546-4.3193 4.7053-6.264.8865-.9741 1.8119-1.8704 2.7666-2.7569.9243-.9063 1.9001-1.7584 2.9225-2.5523.9742-.828 2.0458-1.6268 2.9225-2.5426.8768-.9157 1.8022-1.8899 2.7667-2.7861.9789-.8693 2.0317-1.6516 3.1465-2.338 1.1127-.721 2.3146-1.2941 3.5752-1.7048l.1462.1461zM48.3987 42.9187c-1.3465 1.3646-2.8284 2.5886-4.4227 3.6531-.8086.4968-1.7048.9157-2.4647 1.4905-.7714.5766-1.4829 1.2293-2.1237 1.9483-1.2664 1.4516-2.6497 2.7667-4.0136 4.1013-1.4225 1.3004-2.9328 2.5014-4.5201 3.5947l-.0974-.0877c1.0203-1.6569 2.2371-3.1844 3.6239-4.5494.6916-.6721 1.432-1.3054 2.1821-1.9483.7491-.5892 1.5331-1.1324 2.3478-1.6269.8186-.5186 1.5969-1.0982 2.3282-1.734.7209-.6332 1.3444-1.3931 2.0653-2.0458.7332-.6334 1.526-1.1946 2.3672-1.6755.836-.5107 1.7285-.9226 2.6595-1.2275l.0682.1072z" fill="#fff"/><path d="M179.668 62.0414l-12.664-5.202c-1.101 1.6853-9.323 14.7391-9.323 14.7391-13.638 3.3999-24.354 15.9764-28.592 20.6135.438 4.7344 4.413 5.4748 4.705 10.239l6.186 13.307c71.163-2.601 39.688-53.6966 39.688-53.6966z" fill="#F35C39"/><path d="M183.623 69.757c-.778.608-1.715.9799-2.698 1.0716-.975.1399-1.968.087-2.923-.1559-.902-.311-1.787-.672-2.65-1.0813-.428-.1964-.867-.3688-1.315-.5163l-1.325-.5066c-1.786-.6599-3.454-1.604-4.939-2.7958-.717-.6143-1.403-1.2645-2.055-1.9484-.625-.7131-1.204-1.4647-1.734-2.2503l.097-.0974c.81.4718 1.591.9923 2.338 1.5586.76.5261 1.51 1.0521 2.231 1.6172.721.565 1.461 1.091 2.173 1.6658.37.263.75.5163 1.12.7988.37.2825.721.565 1.11.8183.375.2674.765.5114 1.169.7306.416.1978.842.3734 1.277.5261.888.2304 1.8.3611 2.718.3897 1.77.2764 3.571.2993 5.348.0681l.058.1072zM186.546 83.9407c-.643.1462-1.296.4871-1.949.7112-.674.2454-1.364.4472-2.065.604-2.123.5358-4.349.509-6.459-.078-.705-.1685-1.4-.3733-2.084-.6137-.682-.2143-1.374-.3702-2.036-.6527-.663-.2825-1.374-.4286-2.017-.7306-.643-.302-1.315-.5845-1.948-.8963-.633-.3117-1.218-.7598-1.832-1.1495-1.2-.7959-2.331-1.6921-3.38-2.6789-.974-.9742-1.948-2.1237-2.835-3.2245-.886-1.1009-1.588-2.377-2.299-3.6142l.107-.0779c1.052.9741 2.049 1.9743 2.991 3.0004 1.042.9742 1.997 1.9483 3.02 2.9225 2.013 1.8992 4.198 3.608 6.527 5.1047 1.182.7419 2.474 1.2911 3.828 1.6268.32.0926.645.1642.974.2143l1.043.078c.691.0486 1.384.0486 2.075 0 .682 0 1.364-.0682 2.046-.0487.341 0 .681-.0585 1.022-.0877.346-.0132.691-.0457 1.033-.0974.682-.0682 1.374-.1754 2.065-.2728.71-.1526 1.439-.2018 2.163-.1461l.01.1071zM181.198 101.583c-1.843-.283-3.646-.787-5.368-1.5-1.731-.673-3.397-1.5012-4.978-2.4745-1.569-.9741-3.04-2.1237-4.54-3.1952l-2.279-1.5587c-.75-.5358-1.569-.9742-2.309-1.5295-1.548-1.0161-3.038-2.1187-4.462-3.3024-1.451-1.1495-2.815-2.3965-4.159-3.6726-1.345-1.2762-2.524-2.7082-3.761-4.072-1.237-1.3639-2.299-2.9226-3.361-4.413l.146-.0682c1.394 1.2177 2.699 2.5036 4.014 3.7798l2.007 1.8801c.672.6137 1.295 1.2859 1.948 1.8801 2.64 2.5231 5.319 4.9975 8.076 7.4232.672.6137 1.403 1.1788 2.124 1.7438.731.5622 1.495 1.0794 2.289 1.5489 1.576.9473 3.202 1.8091 4.871 2.5816 3.244 1.6755 6.439 3.3806 9.829 4.8706l-.087.078zM169.702 110.01c-1.677-.53-3.293-1.235-4.822-2.104-.769-.429-1.529-.877-2.25-1.364-.742-.47-1.454-.984-2.134-1.539-1.373-1.101-2.61-2.348-3.896-3.507-1.286-1.16-2.64-2.2702-3.994-3.3808-.673-.565-1.325-1.1398-1.949-1.7438l-.974-.8865c-.312-.3117-.604-.6332-.916-.9741l-1.812-1.9484c-.574-.6624-1.12-1.3443-1.675-2.0165-1.087-1.377-2.105-2.8076-3.049-4.2863-.975-1.4808-1.764-3.0297-2.553-4.5884l.108-.0682c1.169 1.3152 2.201 2.7082 3.302 4.0428 1.101 1.3346 2.143 2.7082 3.302 3.9941 2.124 2.718 4.452 5.2605 6.732 7.8713.604.6235 1.188 1.2664 1.812 1.8704.623.604 1.295 1.1594 1.948 1.7144.678.543 1.384 1.05 2.114 1.52.711.497 1.442.974 2.173 1.412 2.864 1.949 5.669 3.897 8.611 5.787l-.078.195zM156.288 113.663c-1.536-.078-3.036-.494-4.394-1.218l-.974-.536-.974-.652c-.312-.215-.614-.449-.916-.682-.302-.234-.565-.517-.837-.77l-.799-.818-.731-.867c-.497-.565-.974-1.15-1.442-1.734-.974-1.13-1.964-2.254-2.971-3.371-2-2.256-3.727-4.7415-5.143-7.4036-1.444-2.6615-2.432-5.546-2.923-8.5338h.127c1.227 2.7375 2.591 5.3287 4.023 7.9006.711 1.2859 1.413 2.5718 2.153 3.8479l2.318 3.7899c.774 1.264 1.678 2.442 2.699 3.516.263.273.516.536.789.789l.857.712.848.711.886.652c2.195 1.923 4.693 3.467 7.394 4.569l.01.098z" fill="#fff"/><g filter="url(#filter0_d)"><path d="M168.202 78.963l19.912-.2436-1.179-1.5781h.107l-.974-10.7938h-.409l-.165-11.7972c.229-.0927.45-.2035.662-.3312.321-.2241.916-.5943.974-.9742.068-.3834.068-.7759 0-1.1593-.126-.3343-.373-.609-.692-.7696.313-.1606.564-.4212.712-.7403.112-.4056.151-.8277.117-1.247 0-.302-.302-.9741-.682-1.091-.117-.0121-.235.0081-.341.0584.258-.1871.457-.4439.574-.7404.069-.3866.069-.7823 0-1.169-.088-.2771-.267-.5169-.506-.6819.062-.0898.118-.1842.165-.2825.134-.368.197-.7581.186-1.1495 0-.2923-.049-.8573-.4-.9742-.351-.1169-.653.1559-.974.3507l-.068-4.8708-.068-5.2898 2.026-2.0457h-.127l.059-.0585-1.354-2.5913 1.393 2.6692 2.825-2.864.136-.1364 1.335-1.3736-1.481-9.5566-.623-4.1889-4.56-.6819-9.995-1.6561-1.295 1.3054-2.923 2.9712-.097-.0487-1.296 1.3054-8.495 8.7675-2.922 2.679.789.3799-.614.6235-5.845 6.0301c-.304.3028-.375.7696-.173 1.1487.202.3792.629.5814 1.05.4976l5.64-.9742c.515-.0969 1.014.2301 1.131.7404l.204.8865c.066.2869.259.5285.524.6572.265.1286.573.1306.84.0052l2.075-.9741c.356-.1688.779-.1064 1.071.158.292.2645.396.6789.264 1.0499l-.575 1.7048c-.108.3073-.056.6482.14.9085s.509.4056.834.3872l2.591-.1851c.318-.0148.623.1268.818.3792.194.2523.252.5836.156.8872l-1.948 6.186c-.146.4349.031.9131.425 1.1478.394.2347.899.1624 1.212-.1736l1.578-1.6172.058 4.2474c0-.2046 0-.3799-.087-.4384-.088-.0584-.156 0-.341.1267-.644.5508-1.083 1.3024-1.247 2.1334-.155.949.092 1.9196.682 2.679.274.3078.66.4937 1.071.5163l.127 9.4884h-.37l-.682 10.7743 8.904-.1266-9.128.1364-.731 1.5879z" fill="#fff"/></g><path fill="#2C5A7A" d="M169.671 18.3809l15.2734736-.21593803.68045148 48.12889009-15.2734736.21593803z"/><path d="M170.18 54.4625l15.051-15.7524-.527-19.0158-15.011.3507.487 34.4175z" fill="#1D475E"/><path d="M188.114 78.6807l-19.912.2825.848-1.6171 17.885-.2436 1.179 1.5782z" fill="#FFC725"/><path d="M187.004 77.1023l-17.73.2436.682-10.7743.019-.0487 16.054-.2338.01.0194.965 10.7938z" fill="#FDDC64"/><path d="M175.625 59.3335v.1948h.351v2.1919h.419v-2.2893c.402-.1275.817-.2124 1.237-.2533v2.5231h.516v-2.5231c.423.0272.841.1024 1.247.2241v2.2893h.409v-2.2016h.351v-.2533c-.719-.306-1.489-.4745-2.27-.4968-.779.0411-1.543.233-2.25.565" fill="#fff"/><path d="M180.145 59.0608c-.715-.3158-1.487-.4848-2.269-.4968-.78.0314-1.546.2203-2.251.5552v-.3604l2.251-.7891 2.269.7209v.3702zM175.665 61.939l4.51969831-.06389999.00933022.65993405-4.51969831.06389999z" fill="#fff"/><path d="M158.012 28.9295l-5.845 6.0301c-.305.3029-.375.7696-.173 1.1488.202.3792.629.5813 1.05.4975l5.64-.9741c.515-.0969 1.014.23 1.13.7403l.205.8865c.066.287.259.5286.524.6572.264.1287.573.1306.84.0053l2.075-.9742c.356-.1687.779-.1064 1.071.1581.292.2644.396.6788.263 1.0499l-.574 1.7048c-.108.3072-.056.6481.14.9085.196.2603.509.4055.834.3871l2.591-.1851c.318-.0147.623.1268.817.3792.195.2523.253.5836.157.8873l-1.948 6.1859c-.146.435.031.9131.425 1.1478.394.2348.899.1624 1.212-.1736l5.172-5.3092.721-.7307c.298-.3031.365-.7644.166-1.1397l-4.871-9.1962c-.098-.1827-.251-.3294-.438-.4189l-9.43-4.5786c-.379-.1871-.836-.1084-1.13.1948l-.731.7404" fill="#FAA919"/><path d="M169.196 16.5383l-8.495 8.7188 10.979 5.3385 5.64 10.7451 8.505-8.7286 1.295-1.3151-5.562-10.6672-11.076-5.3969-1.296 1.3054" fill="#FDDC64"/><path d="M173.521 12.3103l-2.952 2.9809 10.989 5.3385 5.631 10.7451 2.961-2.9907 1.296-1.3152-2.085-13.6481-14.554-2.4159-1.296 1.3054" fill="#fff"/><path d="M184.802 12.6611l4.559.682.623 4.1889s-4.013-1.432-5.182-4.8709z" fill="#2C5A7A"/><path d="M163.058 22.8315s8.651 7.0628 24.131 8.5435l-9.888 9.9658-5.641-10.7159-10.92-5.3677 2.318-2.4257z" fill="#FFC725"/><path d="M160.701 25.2568l10.979 5.3385 5.64 10.7451-3.146 3.0102-4.959-10.9789-11.388-5.4359 2.874-2.679z" fill="#2C5A7A"/><path d="M170.365 51.3355c.068.0779 0 .2728 0 .4871l-.127.7111c0-.1461 1.081-.4578 1.227-.5065.711-.2664 1.487-.3072 2.222-.1169.818.263.496 1.5586.126 2.036-.224.2922-.36.6527-.604.9157-.276.2991-.572.579-.886.8378-.78.6624-2.747 2.1432-3.897.2435-.407-.873-.428-1.8771-.058-2.7666.348-.7703.945-1.4014 1.695-1.7925.156-.1072.263-.1072.302-.0487zM184.812 46.1918c-.867.6625-1.725 1.3444-2.562 2.0555-.273.2338-1.199 1.1885-.536 1.5002.282.1364.877 0 1.169-.0876.4-.0786.794-.1861 1.179-.3215.352-.1243.695-.2774 1.022-.4579.254-.1363.556-.224.789-.3799.234-.1559.838-.6332.926-.9742.068-.3866.068-.7823 0-1.169-.118-.4002-.429-.7147-.828-.8377-.331-.078-.877.4773-1.159.6721z" fill="#F8BBB4"/><path d="M185.006 43.7855c-.974.5358-1.899 1.1008-2.825 1.6853-.311.1851-1.344.9742-.74 1.4126.38.1106.779.1339 1.169.0681.406-.0192.809-.0681 1.208-.1461.367-.0787.729-.1828 1.081-.3117.273-.1072.575-.1461.838-.2728.347-.1804.612-.4873.74-.8572.134-.3681.197-.7581.186-1.1496 0-.2922-.049-.8572-.4-.9741-.351-.1169-.974.4091-1.257.5455zM185.26 48.8319c-.974.6332-1.949 1.2956-2.923 1.9483-.311.2241-1.373 1.1593-.691 1.5587.409.1023.837.1023 1.247 0 .434-.0431.864-.1213 1.285-.2338.387-.1088.764-.2456 1.13-.4092.283-.1266.604-.1948.877-.3409.273-.1462.809-.4774.974-.8671.112-.4055.152-.8276.117-1.2469 0-.302-.302-.9742-.682-1.0911-.38-.1169-1.042.4969-1.334.682z" fill="#F8BBB4"/><path d="M185.016 51.8714c-.857.6819-1.705 1.3833-2.533 2.1139-.263.2338-1.169 1.1982-.496 1.51.393.0403.79-.0131 1.159-.1559.397-.0806.788-.1914 1.169-.3312.334-.1389.659-.2983.974-.4774.253-.1461.555-.2338.789-.3994.234-.1656.916-.5942.974-.9741.068-.3835.068-.7759 0-1.1593-.17-.4259-.531-.747-.974-.867-.253-.0098-.808.5455-1.062.7404z" fill="#F8BBB4"/><g><g filter="url(#filter1_d)"><path d="M195.235 157.023h62.767L247.158 80.96 75.8118 105.714l7.4134 51.309H195.235z" fill="#fff"/></g><path clip-rule="evenodd" d="M195.235 157.023h62.767L247.158 80.96 75.8118 105.714l7.4134 51.309H195.235z" stroke="#E0E0E0" stroke-width=".5"/><path d="M92.5968 157.023H248.502l-7.978-58.6743c-.079-.6008-.396-1.1447-.879-1.5107-.483-.3659-1.092-.5235-1.692-.4376L89.4794 117.832c-.6019.077-1.1475.393-1.514.877-.3664.484-.523 1.095-.4343 1.695l5.0657 36.619z" fill="#DFEBEF"/></g><path fill="#fff" d="M100.962 140.216l31.67124428-4.5751815.75490495 5.2257553-31.67124428 4.5751815z"/><g><path d="M152.145 154.942c7.048 0 12.76-5.713 12.76-12.76s-5.712-12.76-12.76-12.76c-7.047 0-12.76 5.713-12.76 12.76s5.713 12.76 12.76 12.76z" fill="#FFD04E"/><path fill-rule="evenodd" clip-rule="evenodd" d="M141.365 142.182c0-5.954 4.827-10.78 10.78-10.78 5.954 0 10.78 4.826 10.78 10.78 0 5.953-4.826 10.78-10.78 10.78-5.953 0-10.78-4.827-10.78-10.78zm21.12 0c0-5.711-4.629-10.34-10.34-10.34-5.71 0-10.34 4.629-10.34 10.34 0 5.71 4.63 10.34 10.34 10.34 5.711 0 10.34-4.63 10.34-10.34z" fill="#9B6D00"/><path d="M153.625 149.957c1.199-.168 2.162-.507 2.891-1.017l-.365-2.6c-.839.512-1.743.836-2.711.972-1.828.256-3.03-.413-3.606-2.01l3.432-.482-.254-1.808-3.605.507-.067-.332-.067-.477-.03-.359 4.244-.596-.251-1.787-4.092.575c.028-.929.276-1.67.744-2.222.468-.553 1.115-.887 1.94-1.003.44-.062.872-.062 1.295-.001.423.062.882.165 1.379.309l.664-2.496c-1.188-.399-2.419-.509-3.691-.33-1.645.231-2.949.899-3.912 2.004-.963 1.106-1.455 2.495-1.475 4.168l-1.351.19.251 1.787 1.178-.165.056.541c.037.264.08.472.129.624l-1.198.168.254 1.807 1.391-.195c.501 1.552 1.349 2.703 2.546 3.453 1.196.75 2.623 1.008 4.281.775z" fill="#A16D06"/></g><g fill="#2C5A7A"><path d="M98.5489 130.448l-.7988-5.543.906-.127.7988 5.543-.906.127zM104.901 129.532l-.887.127-.38-2.582c-.013-.259-.121-.505-.302-.692-.184-.145-.424-.199-.653-.146-.317.014-.608.181-.779.448-.15.368-.184.772-.097 1.16l.302 2.084-.887.137-.614-4.199.702-.097.204.526c.1-.224.262-.413.468-.546.228-.144.483-.237.75-.273.412-.116.854-.032 1.195.226.34.259.54.662.539 1.09l.439 2.737zM107.998 128.402c.223-.032.44-.097.643-.195l.098.673c-.116.07-.241.125-.37.165-.156.051-.316.09-.478.117-.838.117-1.325-.263-1.461-1.159l-.321-2.26-.575.087-.059-.399.565-.409.185-.974.546-.078.136.974 1.189-.175.097.672-1.188.175.321 2.241c.01.178.095.345.234.458.127.089.286.121.438.087z"/><path fill-rule="evenodd" clip-rule="evenodd" d="M110.2 128.256c.465.34 1.053.468 1.617.35.272-.028.54-.087.799-.175.224-.074.438-.179.633-.312l-.107-.721c-.206.132-.425.243-.653.332-.22.082-.448.138-.682.165-.337.085-.695.013-.974-.195-.26-.231-.427-.55-.467-.896l2.795-.399-.068-.487c-.045-.511-.29-.984-.682-1.315-.394-.3-.898-.414-1.383-.312-.538.048-1.026.339-1.325.789-.297.508-.398 1.108-.282 1.685.05.581.33 1.118.779 1.491zm.283-2.923c.151-.209.385-.344.642-.37.26-.058.531.002.741.166.214.198.346.469.37.76l-1.948.272c-.033-.29.036-.582.195-.828z"/><path d="M116.347 123.531c.149-.017.299-.017.448 0v.848c-.136-.019-.273-.019-.409 0-.324.032-.619.202-.809.468-.198.283-.272.635-.204.974l.321 2.192-.896.136-.604-4.199.692-.097.234.721c.094-.259.251-.49.457-.672.211-.202.481-.332.77-.371zM122.27 127.019l-.896.136-.38-2.581c-.015-.258-.118-.502-.292-.692-.185-.152-.43-.21-.663-.156-.319.016-.61.187-.779.458-.153.363-.187.766-.098 1.15l.302 2.094-.886.127-.614-4.189.702-.107.204.535c.1-.22.263-.406.468-.535.225-.148.482-.242.75-.273.411-.116.853-.033 1.194.226.341.258.541.661.54 1.089l.448 2.718z"/><path fill-rule="evenodd" clip-rule="evenodd" d="M126.254 125.898l.263.556.75-.088-.409-2.825c-.027-.416-.238-.798-.574-1.043-.386-.204-.832-.263-1.257-.165-.257.036-.508.101-.75.195-.25.101-.489.228-.711.38l.38.594c.175-.112.357-.213.545-.302.19-.094.394-.157.604-.185.209-.049.429-.007.604.117.162.149.26.355.273.574v.224l-.721.127c-.518.056-1.011.255-1.422.575-.285.266-.413.659-.341 1.042.033.353.209.677.487.896.289.185.636.254.974.195.271-.029.534-.116.77-.253.228-.155.412-.367.535-.614zm-.409-.243c-.188.22-.453.359-.74.389v-.048c-.174.052-.362.038-.526-.039-.135-.094-.218-.246-.224-.409-.048-.225.026-.458.194-.614.263-.185.568-.302.887-.341l.536-.098.058.361c.059.28-.009.573-.185.799z"/><path d="M130.258 125.207c.22-.032.434-.098.633-.195l.098.672c-.115.067-.236.122-.361.166-.155.05-.315.086-.477.107-.847.127-1.335-.253-1.461-1.15l-.331-2.26-.565.088-.059-.399.565-.409.175-.975.546-.078.136.975 1.199-.176.097.672-1.198.176.331 2.24c.011.177.091.342.224.458.131.089.293.121.448.088z"/><path fill-rule="evenodd" clip-rule="evenodd" d="M131.486 119.898c-.079.113-.108.254-.078.389.015.134.081.256.185.341.244.13.543.086.74-.107.071-.113.099-.248.078-.38-.012-.137-.079-.263-.185-.35-.112-.074-.248-.102-.38-.078-.139.014-.268.08-.36.185zm.74 5.689l.896-.136-.604-4.189-.896.126.604 4.199zM137.905 124.243c.306-.506.411-1.107.293-1.686-.055-.578-.327-1.114-.76-1.5-.427-.342-.984-.477-1.52-.37-.557.041-1.066.326-1.393.779-.315.494-.42 1.094-.292 1.666.043.401.184.786.409 1.12.193.297.472.528.799.663.343.137.717.178 1.081.117.555-.047 1.061-.336 1.383-.789zm-1.471.058c-.72.107-1.149-.322-1.285-1.296v.01c-.082-.371-.048-.759.097-1.11.148-.289.436-.478.76-.497.711-.098 1.149.321 1.276 1.286.127.964-.127 1.5-.848 1.607z"/><path d="M143.604 123.94l-.896.127-.37-2.582c-.018-.258-.124-.503-.302-.691-.183-.149-.424-.203-.653-.147-.317.014-.608.181-.779.449-.15.367-.184.772-.098 1.159l.302 2.085-.896.136-.604-4.199.702-.097.204.526c.104-.224.269-.413.478-.546.225-.148.482-.241.75-.272.411-.116.853-.033 1.194.226.341.258.54.661.54 1.089l.428 2.737z"/><path fill-rule="evenodd" clip-rule="evenodd" d="M147.598 122.762l.263.565.731-.108-.409-2.825c-.024-.411-.231-.79-.565-1.032-.384-.208-.831-.271-1.257-.176-.257.039-.509.108-.75.205-.253.093-.493.221-.711.38l.38.594c.172-.115.351-.219.536-.312.191-.089.395-.148.604-.175.21-.048.431-.009.613.107.161.15.258.356.273.575v.224l-.721.127c-.514.06-1.002.258-1.412.574-.291.267-.421.666-.341 1.053.028.351.206.673.487.886.285.193.636.263.974.195.271-.027.533-.11.77-.244.221-.163.403-.372.535-.613zm-.419-.234c-.188.218-.453.354-.74.38-.176.043-.361.015-.516-.078-.132-.098-.217-.246-.234-.409-.049-.23.029-.468.205-.624.262-.185.567-.302.886-.341l.536-.097.049.36c.061.284-.006.58-.186.809z"/><path d="M150.998 122.869l-.886.126-.857-5.903.896-.127.847 5.904z"/><path fill-rule="evenodd" clip-rule="evenodd" d="M158.821 120.998c.458-.639.627-1.441.467-2.211-.065-.749-.439-1.437-1.032-1.9-.639-.416-1.415-.566-2.163-.418l-1.714.253.808 5.543 1.549-.224c.805-.061 1.553-.435 2.085-1.043zm-2.66-3.76c1.247-.234 1.958.39 2.153 1.715h.02c.162.546.058 1.137-.281 1.594-.339.458-.874.73-1.443.734l-.653.088-.575-4.024.779-.107zM160.438 115.718c-.082.108-.111.248-.078.38.007.134.071.258.175.341.118.078.262.106.4.078.134-.011.258-.078.341-.185.08-.105.109-.241.078-.37-.005-.137-.069-.265-.176-.351-.241-.144-.55-.099-.74.107zm.74 5.68l.887-.127-.604-4.199-.887.137.604 4.189z"/><path d="M166.38 119.43c.061.356-.055.719-.311.974-.348.298-.781.479-1.238.516-.459.084-.932.064-1.383-.058l-.117-.77c.462.15.95.2 1.432.146.546-.087.799-.292.75-.623-.013-.096-.058-.185-.126-.253-.103-.073-.214-.132-.332-.176-.203-.072-.411-.131-.623-.175-.38-.063-.741-.206-1.062-.419-.203-.176-.332-.424-.36-.692-.059-.332.059-.671.311-.896.323-.269.721-.432 1.14-.467.482-.071.974-.038 1.442.097l-.185.711c-.386-.108-.789-.148-1.189-.117-.467.068-.681.234-.643.507.022.134.11.247.234.302.274.123.562.211.858.263.277.059.548.148.808.263.33.157.555.474.594.838v.029zM169.371 119.556c.22-.032.434-.097.633-.194l.098.672c-.115.066-.236.122-.361.165-.155.051-.315.087-.477.108-.354.095-.731.018-1.019-.208-.288-.227-.452-.576-.442-.942l-.332-2.26-.565.078-.058-.39.565-.419.175-.974.546-.078.136.974 1.199-.165.097.672-1.198.175.331 2.241c.011.176.091.341.224.458.133.085.293.116.448.087z"/><path fill-rule="evenodd" clip-rule="evenodd" d="M170.56 114.247c-.079.114-.108.255-.078.39.013.135.084.257.194.335.11.079.249.106.38.074.139-.008.267-.075.351-.185.072-.109.1-.241.078-.37-.008-.138-.075-.266-.185-.351-.11-.077-.248-.106-.38-.078-.14.01-.27.077-.36.185zm.74 5.68l.896-.127-.604-4.189-.896.127.604 4.189z"/><path d="M177.583 119.031l-.896.126-.37-2.581c-.018-.259-.124-.503-.302-.692-.182-.158-.431-.213-.663-.146-.317.013-.608.18-.779.448-.153.367-.188.772-.097 1.159l.302 2.085-.897.136-.604-4.198.702-.098.204.526c.107-.222.272-.41.478-.545.225-.148.482-.242.75-.273.411-.116.854-.032 1.194.226.341.258.541.662.54 1.089l.438 2.738zM180.915 118.661c-.535.118-1.095-.007-1.529-.341-.423-.402-.68-.948-.721-1.53-.128-.58-.027-1.187.282-1.695.334-.455.85-.743 1.413-.789.41-.064.829-.037 1.227.078l-.165.75c-.318-.082-.647-.112-.975-.088-.72.104-1.013.64-.876 1.608.036.362.186.703.428.974.227.205.538.292.838.234.398-.055.774-.213 1.091-.458l.107.779c-.144.115-.305.207-.477.273-.206.092-.422.16-.643.205zM184.919 117.306c.22-.032.433-.097.633-.194l.097.672c-.112.07-.233.126-.36.165-.156.05-.316.089-.477.117-.355.092-.732.012-1.019-.216-.287-.227-.451-.577-.443-.943l-.331-2.26-.565.088-.058-.4.565-.409.175-.974.546-.078.136.974 1.198-.175.098.672-1.199.175.332 2.251c.01.174.091.336.224.448.131.089.293.12.448.087z"/><path fill-rule="evenodd" clip-rule="evenodd" d="M186.146 111.997c-.078.114-.106.254-.078.39.015.133.082.255.185.34.242.144.55.099.741-.107.073-.112.101-.248.078-.38-.013-.136-.079-.263-.185-.35-.112-.074-.248-.102-.38-.078-.14.014-.268.08-.361.185zm.741 5.689l.896-.127-.604-4.198-.896.126.604 4.199zM192.595 116.351c.306-.501.41-1.1.293-1.675-.055-.581-.326-1.12-.76-1.51-.427-.342-.984-.478-1.52-.37-.557.041-1.067.326-1.393.779-.313.495-.418 1.094-.292 1.666.044.399.181.783.399 1.12.196.298.478.529.809.663.342.138.717.178 1.081.116.552-.053 1.056-.341 1.383-.789zm-1.48.059c-.712.107-1.14-.322-1.277-1.296h-.029c-.07-.371-.026-.755.127-1.101.147-.287.437-.473.76-.487.711-.107 1.159.302 1.276 1.276.117.975-.146 1.501-.857 1.608z"/><path d="M198.265 116.04l-.896.126-.37-2.571c-.016-.262-.123-.511-.302-.702-.185-.144-.425-.198-.653-.146-.317.014-.608.181-.779.448-.15.368-.184.772-.098 1.159l.302 2.095-.896.127-.604-4.199.701-.098.205.527c.103-.224.269-.414.477-.546.228-.144.484-.237.75-.273.412-.116.854-.032 1.195.226.34.259.54.662.539 1.089l.429 2.738z"/><path fill-rule="evenodd" clip-rule="evenodd" d="M205.055 113.487l.779 1.462.974-.117-2.922-5.261-.974.137-1.267 5.845.974-.146.322-1.618 2.114-.302zm-1.081-2.182l.73 1.432-1.617.234.292-1.52c.077-.35.129-.704.156-1.061.039.097.107.253.205.457.069.157.147.31.234.458z"/><path d="M211.26 114.16l-.818-1.88c-.097-.195-.292-.663-.565-1.394-.049.702-.097 1.199-.136 1.501l-.273 2.026-.974.146-1.783-4.023.916-.137.828 1.949c.173.416.322.843.448 1.276v-.653c0-.253 0-.428.058-.555l.322-2.299.974-.136.974 2.113c.085.178.16.36.224.546.076.19.138.385.185.584-.005-.449.018-.898.069-1.344l.243-2.153.896-.126-.574 4.364-1.014.195z"/><path fill-rule="evenodd" clip-rule="evenodd" d="M216.92 112.747l.263.555.731-.097-.409-2.825c-.02-.416-.228-.799-.565-1.043-.387-.199-.831-.258-1.257-.165-.257.035-.509.1-.75.195-.25.101-.488.228-.711.38l.38.604c.171-.117.35-.221.536-.312.191-.091.394-.153.604-.185.211-.05.434-.007.613.117.162.149.26.355.273.574v.224l-.721.127c-.515.056-1.005.255-1.412.575-.29.263-.419.659-.341 1.042.028.354.205.68.487.896.289.185.636.254.974.195.271-.029.534-.116.77-.253.223-.157.406-.364.535-.604zm-.409-.244c-.188.22-.453.36-.74.39-.18.037-.368.006-.526-.088-.136-.093-.222-.244-.234-.409-.043-.226.034-.458.205-.613.261-.189.566-.306.886-.341l.536-.098.049.361c.061.279-.003.571-.176.798z"/><path d="M220.963 108.403c.149-.018.299-.018.448 0v.847c-.132-.019-.267-.019-.399 0-.329.034-.627.208-.818.477-.196.285-.267.637-.195.975l.311 2.191-.886.127-.604-4.199.692-.097.224.721c.095-.258.252-.489.458-.672.209-.205.479-.335.769-.37z"/><path fill-rule="evenodd" clip-rule="evenodd" d="M223.311 111.919c.345.336.833.481 1.305.39.511-.055.953-.378 1.159-.848h.049l.234.526.692-.107-.848-5.845-.896.127.224 1.529c.035.238.091.473.166.702h-.049c-.344-.366-.852-.528-1.345-.429-.483.045-.913.326-1.149.75-.255.519-.331 1.109-.214 1.676.047.57.284 1.108.672 1.529zm2.192-.789c-.17.252-.447.411-.75.429-.288.049-.581-.05-.78-.263-.23-.299-.369-.657-.399-1.033-.078-.375-.045-.765.097-1.12.126-.267.379-.452.672-.487.306-.067.624.016.858.224.25.307.396.685.419 1.081v.127c.073.351.032.716-.117 1.042z"/><path d="M231.065 110.078c.058.356-.058.718-.312.974-.351.291-.782.468-1.237.507-.459.091-.933.071-1.383-.059l-.107-.77c.458.15.943.2 1.422.147.546-.078.799-.283.75-.614-.011-.097-.056-.186-.126-.253-.098-.08-.211-.139-.332-.176-.203-.072-.412-.131-.623-.175-.378-.069-.739-.211-1.062-.419-.2-.179-.328-.425-.36-.692-.062-.335.056-.679.311-.906.328-.261.723-.424 1.14-.467.482-.071.974-.038 1.442.097l-.185.721c-.385-.118-.789-.158-1.189-.117-.467.072-.682.237-.643.497.022.136.11.253.234.312.277.114.564.202.857.263.279.052.55.137.809.253.155.081.291.194.399.331.112.162.179.35.195.546z"/></g><g fill="#6D93A8"><path d="M171.027 100.151c.054.241-.024.493-.204.662-.226.199-.51.318-.809.341-.3.077-.615.077-.916 0l-.078-.506c.314.105.647.139.975.097.363-.058.529-.195.496-.409-.007-.064-.038-.124-.087-.166-.066-.049-.138-.088-.215-.116-.133-.05-.27-.0889-.409-.1173-.251-.0391-.49-.1322-.701-.2728-.136-.1165-.223-.28-.244-.4579-.037-.2219.044-.4473.215-.5942.21-.181.473-.2902.75-.3117.325-.0537.659-.0303.974.0682l-.127.4676c-.256-.0738-.523-.1002-.789-.078-.302.0487-.448.1559-.419.3312.017.0338.04.0637.068.0877.183.0766.372.1354.565.1754.186.0305.366.0863.536.1656.107.0531.2.1297.273.224.093.1165.144.2602.146.4092zM173.404 100.628c-.343.063-.697-.022-.974-.234-.533-.5802-.649-1.4304-.292-2.1329.23-.3097.588-.4992.974-.5163.267-.0549.542-.0549.808 0l-.107.4968c-.209-.04-.424-.04-.633 0-.481.0649-.675.4156-.584 1.0521.02.2514.118.49.282.6819.15.1364.356.1944.555.1554.263-.036.511-.1401.721-.3015l.068.5165c-.093.075-.198.134-.311.175-.164.056-.334.092-.507.107zM177.788 99.9466l-.594.0874-.244-1.7045c-.012-.1729-.081-.337-.195-.4676-.124-.0963-.285-.1321-.438-.0974-.208.0127-.397.1253-.507.302-.105.2425-.129.5124-.068.7696l.195 1.3739-.585.087-.565-3.8963.585-.0877.146.9742c.027.1709.043.3433.049.5163.057-.1452.155-.2705.282-.3605.145-.1005.312-.164.487-.1851.273-.0802.567-.0267.793.1442.227.1709.359.439.357.7228l.302 1.8217z"/><path fill-rule="evenodd" clip-rule="evenodd" d="M181.188 99.1185c.204-.3319.273-.7291.195-1.1106-.046-.3874-.237-.7429-.536-.9937-.274-.2198-.628-.312-.974-.2532-.369.0298-.707.2182-.926.5163-.2.3332-.27.729-.195 1.1105.039.26.132.509.273.7307.13.1968.317.3497.536.4383.225.0907.471.1177.711.078.365-.0326.699-.2207.916-.5163zm-.974.0389c-.478.1169-.76-.224-.848-.8572-.055-.2439-.035-.4988.059-.7307.098-.1908.292-.3137.506-.3215.468-.0681.76.2144.848.8476.087.6332-.088.9449-.565 1.0618z"/><path d="M183.36 99.1768l-.584.0876-.604-3.9843.584-.078.604 3.9747z"/><path fill-rule="evenodd" clip-rule="evenodd" d="M186.273 98.3193l.175.3702.497-.0682-.263-1.8704c-.018-.2726-.158-.5226-.38-.6819-.253-.1355-.547-.1769-.828-.1169-.17.0251-.337.0709-.497.1364-.167.0607-.325.1461-.467.2533l.253.3896c.11-.0795.227-.148.351-.2045.126-.0581.261-.0975.399-.1169.141-.0352.291-.0067.409.0779.105.0953.168.2284.176.3702v.1559l-.478.0779c-.353.0355-.69.1669-.974.3799-.187.1776-.272.438-.224.6917.019.2344.136.45.321.5942.199.1294.441.175.673.1267.178-.0193.351-.0757.506-.1656.148-.1028.268-.2399.351-.3995zm-.312-.1558c-.122.1453-.297.2364-.487.2533h.039c-.116.0232-.236.006-.341-.0487-.088-.0651-.144-.164-.156-.2728-.031-.151.021-.3073.137-.4092.171-.126.373-.2034.584-.224l.351-.0682v.2435c.038.1855-.008.3785-.127.5261z"/><path d="M189.205 95.4069c.101-.0093.202-.0093.302 0v.5553c-.087-.0146-.176-.0146-.263 0-.219.019-.418.133-.545.3117-.124.1865-.169.4137-.127.6332l.204 1.4418-.584.0877-.409-2.7667.467-.0682.147.4774c.062-.1692.166-.32.302-.4384.138-.131.316-.2131.506-.2338zM192.683 96.9851c.049.2413-.028.4911-.205.6625-.228.2003-.515.3201-.818.3409-.301.0728-.615.0728-.916 0l-.068-.5065c.314.1017.646.1349.974.0974.371-.0585.536-.1949.497-.4092-.007-.0621-.035-.1201-.078-.1656-.064-.0563-.141-.0963-.224-.1169-.133-.0494-.27-.0884-.409-.1169-.251-.0454-.489-.1415-.701-.2825-.134-.1169-.218-.2809-.234-.4578-.044-.2205.034-.4476.204-.5943.215-.1721.476-.2771.75-.302.326-.052.658-.032.975.0585l-.127.4773c-.253-.0736-.517-.1-.779-.0779-.312 0-.458.1558-.429.3312.015.0899.073.1667.156.2046.18.0797.37.1354.565.1656.184.0391.364.0979.536.1753.104.0532.194.13.263.2241.044.091.068.1909.068.2922zM196.385 97.2284l-.594.0877-.244-1.7048c-.012-.1729-.081-.337-.195-.4676-.127-.0906-.285-.1258-.438-.0975-.208.0128-.397.1253-.507.302-.105.2425-.129.5124-.068.7696l.195 1.3736-.585.0877-.565-3.8967.585-.0877.146.9742c.01.1719.01.3444 0 .5163.061-.1458.162-.271.292-.3604.145-.1005.312-.1641.487-.1851.273-.0802.567-.0268.793.1441.227.1709.359.4391.357.7229l.341 1.8217z"/><path fill-rule="evenodd" clip-rule="evenodd" d="M197.231 93.3071c-.057.0734-.077.1681-.057.2585.021.1367.123.2468.258.2789.134.032.275-.0204.356-.1328.051-.0699.069-.1591.048-.2435-.006-.0904-.048-.1745-.117-.2338-.074-.0509-.165-.0685-.253-.0487-.092.0035-.179.048-.235.1214zm.488 3.7558l.585-.0877-.4-2.7569-.584.0877.399 2.7569zM200.204 96.3713c.232.2246.56.3194.876.2533.328-.0384.614-.2401.76-.5358.175-.339.227-.728.146-1.1008-.043-.3619-.196-.7019-.438-.9742-.228-.2249-.552-.3232-.867-.263-.333.0372-.624.2433-.77.5455-.03-.0814-.06-.1495-.084-.2046-.031-.0701-.052-.1188-.052-.1461l-.477.0682.584 4.0038.585-.0876-.166-1.1398c-.024-.1414-.057-.2813-.097-.4189zm-.098-1.7827c.105-.1648.282-.2697.478-.2825.177-.0527.37-.0165.516.0974.283.4141.355.9372.195 1.4125-.072.1787-.237.3027-.429.3215-.198.0518-.408-.0036-.555-.1461-.161-.2038-.257-.4519-.273-.7112v-.0097c-.05-.2288-.026-.4675.068-.6819z"/></g><g><path fill="#1B5A75" d="M35.5104 156.137v-8.21225h47.3154v8.21225z"/><path fill="#fff" d="M40.1572 153.107v-1.88015h10.8425v1.88015zM66.6643 153.107v-1.88015h10.8425v1.88015z"/></g><g><path fill="#F85C39" d="M51.0972 147.935v-8.41683h36.5703v8.41683z"/><path fill="#FAA592" d="M52.8994 147.935v-8.41683h.896236v8.41683zM54.8185 147.935v-8.41683h.896236v8.41683zM82.3778 147.935v-8.41683h.896236v8.41683zM84.2871 147.935v-8.41683h.896236v8.41683z"/></g><g><path fill="#86B6CA" d="M41.3555 139.508v-9.391h40.3014v9.391z"/><path fill="#1B5A75" d="M41.3068 139.518v-9.391h1.18849v9.391zM80.4586 139.518v-9.391h1.18849v9.391z"/><rect x="46.0413" y="137.16" width="4.6955" height="30.8617" rx="2.34775" transform="rotate(-90 46.0413 137.16)" fill="#1B5A75"/></g><g><path d="M10.8055 101.496c.7501-1.5883.7404-1.5591 2.338-.595.5358.322.6429.575.2046.975-.0774.086-.149.177-.2144.272-.9741 1.228-.9741 1.228-1.9483 0-.0779-.107-.2435-.156-.3604-.234l-.0195-.418z" fill="#3991B9"/><path d="M161.588 31.6187c-.38.2338-.351.6624-.41.9742-.107.6332-.302.7501-.906.4481-1.393-.6819-1.432-.8768-.165-1.7925.438-.3159.946-.5229 1.481-.604v.9742z" fill="#FDCF1B"/><path d="M199.59 75.8946c-.536 0-1.861-.9742-1.695-1.2274.391-.7102 1.089-1.1994 1.89-1.3249.925.0682.974 1.3054 1.062 2.0165.087.7112-.936.1851-1.257.5358zM201.071 20.1625c-.497-.2923-1.52.2825-1.491-.7014 0-.6819.059-1.6853.809-2.0068.75-.3215 1.782 1.3151 1.734 2.2211-.049.906-.721.2338-1.052.4871zM18.745 86.0746c-.4011.736-.9287 1.3955-1.5587 1.9483-.5974-.3518-1.0131-.9452-1.1398-1.6268-.1581-.5762.0455-1.1909.5163-1.5587.81.2458 1.5553.6684 2.1822 1.2372zM208.961 82.2947c-.867 0-1.227-.6527-1.636-1.1982.537-.6238 1.201-1.1253 1.948-1.471.628.5085.987 1.2771.974 2.0847.098.8183-.877.3312-1.286.5845zM204.733 53.0502c-.701 0-1.889-.7696-1.87-1.1885.591-.592 1.276-1.0824 2.026-1.4515.572.526.921 1.2511.974 2.0262.088.8768-.808.4287-1.13.6138zM148.134 72.3972c-.974 0-1.373-.6625-1.792-1.2567.586-.5972 1.272-1.0883 2.026-1.4515.596.5607.947 1.3347.974 2.1529.029.7891-.935.1851-1.208.5553zM126.79 42.2078c-.847 0-1.169-.7111-1.607-1.208.565-.5906 1.223-1.0843 1.948-1.4612.565.602.946 1.352 1.101 2.1626-.263.7501-1.013.1949-1.442.5066z" fill="#3991B9"/><path d="M133.346 13.9277c-.078 2.7667-.078 2.7667-2.922 2.4647.886-.9937 1.539-2.036 2.922-2.4647z" fill="#FC1515"/><path d="M102.056 16.2852c.198 1.3081-.074 2.6442-.77 3.77-.418-.6527-.798-1.2664-1.198-1.8704-.1849-.2728-.2044-.4676.107-.6624.614-.3897 1.199-.7989 1.861-1.2372z" fill="#2C5A7A"/><path d="M225.211 32.4951c.15 1.2601-.102 2.5355-.721 3.6434-1.842-2.7666-1.978-1.8996.721-3.6434zM229.77 60.0933c-.234 1.2079 0 2.4744-.848 3.5752-.114-.1184-.218-.2455-.312-.38-1.373-1.997-1.276-2.2698 1.16-3.1952z" fill="#FC1515"/><path d="M157.467 53.391c0 .3145-.129.6152-.358.831-.229.2158-.536.3276-.85.3088-.618-.0709-1.079-.6029-1.061-1.2247.017-.6218.508-1.1266 1.129-1.1621.721.0293 1.101.5066 1.14 1.247zM209.448 42.5c.478.7404.799 1.2664 1.15 1.7632.351.4969.351.7794-.273.9255-.467.1072-.974.6332-1.364.2825-.389-.3507-.165-.9742-.058-1.4515.148-.5182.33-1.0259.545-1.5197zM95.8116 36.2266c.3897.5942.7306 1.1787 1.13 1.734.2728.3994.2338.5942-.2533.7209-.487.1266-.9741.6234-1.3735.3409s-.2046-.9741-.1364-1.5099c.04-.4936.2664-.9533.6332-1.2859zM119.348 15.9443c.292.5173.617 1.0151.974 1.4905.574.6917.36.9742-.429 1.2372-1.169.3897-1.208.3994-1.159-.8475.03-.6709.242-1.3209.614-1.8802zM112.752 44.0488c.478.7404.789 1.2664 1.16 1.7535.37.4871.263.7599-.332.9742-1.393.5358-1.607.3994-1.383-1.0716.141-.5659.327-1.1197.555-1.6561zM91.379 64.4287l1.2178 1.9484c.1071.1656.2532.3799 0 .487-.5158.2518-1.0582.4447-1.6172.5748-.263 0-.224-.3312-.2435-.5553-.0656-.8671.1607-1.7313.6429-2.4549zM248.22 64.4385c.419.6624.741 1.2372 1.121 1.7535s.146.7014-.302.8085c-.448.1072-.974.6333-1.354.2923-.38-.341-.137-.8768-.098-1.3249.063-.5592.283-1.0893.633-1.5294zM212.273 19.7529l1.218 1.8412c.253.3799.059.5261-.292.643s-.974.3312-1.461.5163c-.265-1.0306-.069-2.1251.535-3.0005zM147.365 46.2797c-.029-.7366.017-1.4742.136-2.2016 0-.3605.166-.4676.516-.341.497.1851.974.3507 1.569.5455-.411.9603-1.223 1.6909-2.221 1.9971zM135.285 40.873l.516.7502c1.121 1.734 1.111 1.7632-.974 2.1918-.299-.9995-.131-2.0806.458-2.942z" fill="#FDCF1B"/><path d="M235.264 74.93c-.604-.0877-.974-.3702-.974-.9742-.014-.348.159-.6771.453-.8631.295-.1861.666-.201.974-.039.309.162.507.4761.521.8242.022.2716-.071.5399-.256.7398-.185.1999-.446.3132-.718.3123z" fill="#3991B9"/><path d="M105.115 37.5315c-.38-.6039-.74-1.13-1.062-1.6755-.127-.2143-.555-.4871 0-.7112.331-.1364.692-.4383 1.033 0 .331.3068.521.7359.527 1.1871.005.4512-.175.8849-.498 1.1996zM119.825 27.9557c.584 0 .974-.6332 1.461 0 .324.3005.508.7224.508 1.1642 0 .4418-.184.8636-.508 1.1641l-1.461-2.3283zM140.282 30.2549c.176-.7404.302-1.3346.458-1.9483.068-.2436-.058-.7501.429-.5845.331.1169.847.1851.799.8085-.098.9839-.419 1.3736-1.686 1.7243zM16.3485 65.5877c.341-.6527.5943-1.1982.906-1.7243.1364-.2143.1461-.7599.5553-.4968.4091.263.8183.4384.526 1.091-.4189.945-.5845 1.1009-1.9873 1.1301zM26.3533 126.59l1.2664-2.396c.3312.428.9742.536.7598 1.208-.1001.433-.374.805-.7573 1.03-.3833.225-.8422.282-1.2689.158z" fill="#FC1515"/><path d="M134.954 55.3393c1.009-.3271 2.116.0208 2.757.8671-1.676.5747-1.803.5455-2.757-.8671zM216.531 35.8564c-.108.4481-.351.7988-.838.789-.235.013-.463-.0781-.625-.2489-.161-.1708-.239-.404-.213-.6376-.009-.2152.074-.4241.229-.5746.154-.1505.365-.2284.58-.2144.604 0 .789.3994.867.8865zM147.92 35.1742c-.451-.0308-.8-.4058-.799-.8573-.035-.2165.029-.4374.174-.6017s.357-.2545.576-.2458c.238-.0336.478.0473.647.2181.169.1708.247.4114.21.6489-.004.4495-.359.8171-.808.8378zM99.9226 67.2048c.0273.2148-.0358.4312-.1744.5975s-.3401.2675-.5563.2793c-.5747.0584-.867-.2825-.8767-.828-.0237-.2157.0496-.4307.2002-.5869.1505-.1563.3627-.2375.5791-.2217.2138-.0224.4269.048.5852.1934.1584.1453.2468.3515.2429.5664z" fill="#3991B9"/><path d="M25.9441 109.893c-.078.477-.2923.789-.7404.818-.214.032-.4307-.038-.5857-.189-.1549-.151-.2302-.366-.2034-.58-.0119-.408.2956-.754.7014-.789.5066-.02.6917.389.8281.74z" fill="#FDCF1B"/><path d="M202.396 65.6853c-.488-.0682-.975-.0682-1.491-.0974.224 2.0165.224 1.9483 1.559 1.734.799-.1461.847-.828.886-1.3054.039-.4773-.604-.2727-.954-.3312zM108.71 25.2766c-.342-.0941-.709-.0146-.981.2128s-.415.5738-.383.9269c.272.7209 1.315.5066 2.006.7501.439.1462.449-.1948.39-.4676-.136-.5845.263-1.6463-1.032-1.4222zM139.61 63.513c-.344.4897-.295 1.154.117 1.5879.283.3994.614-.1948.916-.3507.459-.2682.902-.5643 1.325-.8865-1.549-1.4222-1.539-1.4125-2.358-.3507zM54.6821 118.661c-.3994.828.1948 1.315.7209 1.607.526.292.4773-.448.6722-.731.1948-.282.487-.867.789-1.422-.5065-.127-.8865-.204-1.2566-.312-.7989-.282-.7209.39-.9255.858zM222.873 73.9561c-.157.2138-.333.4127-.527.5942-.974.7599-.438 1.3346.215 1.8899.652.5553 1.091.1071 1.49-.1461.4-.2533-.117-.5748-.253-.8476-.263-.4968-.594-.9644-.925-1.4904zM127.014 47.9943c-.279.2146-.454.5384-.48.89-.026.3516.099.6976.344.9512.292.4188.662-.2338.974-.38.306-.1607.596-.3499.867-.565.117-.0779.302-.1169.253-.3994-.256-.1888-.494-.4008-.711-.6332-.497-.643-.789-.2241-1.247.1364zM229.263 46.504c-.974.5552-1.062 1.4125-.399 2.3964l2.24-1.5392c-.799-.2338-.993-1.3346-1.841-.8572zM144.091 18.4281c-.526 0-1.198-.1851-1.549.1851-.296.4659-.329 1.0525-.087 1.5489.175.4287.74.5943 1.276.8378.175-.7404.341-1.4418.516-2.1432.049-.1948.127-.4286-.156-.4286zM30.3668 75.3492c-.4579-.0682-.6332 0-.8476.4579-.4773.9742 0 1.5781.7989 2.1724.263-.4774.4968-.8768.7111-1.2762.6332-1.1398.6137-1.1495-.6624-1.3541zM243.194 46.2117c-.217-.0521-.44-.075-.663-.0682-.214.2338-.721-.4092-.896.2143-.282.9742.487 1.6756 1.52 1.5099.799-.1169.867-.789.974-1.2761.107-.4871-.585-.263-.935-.3799zM152.83 63.0648c-.393.1678-.671.5263-.737.9483-.065.422.092.8479.415 1.1267.682.7891 1.228.0779 1.949 0-.419-.6917-.76-1.2859-1.13-1.8704-.098-.1364-.147-.3897-.497-.2046zM195.43 36.2944c-.653.1559-1.062.4969-1.032 1.1983-.031.3006.079.5986.298.8065.22.2079.523.3022.822.2553.304.024.601-.0956.804-.3232.203-.2276.287-.537.228-.8361-.01-.6111-.509-1.1009-1.12-1.1008zM86.2257 18.6424c-.2191-.0069-.4294.0862-.5715.253-.1422.1668-.2007.3891-.1592.6043.006.1985.097.3848.2499.5116.1528.1268.3528.1817.5489.1508.3945-.035.698-.3638.7015-.7598-.0877-.4579-.2923-.7793-.7696-.7599z" fill="#2C5A7A"/><path d="M206.526 32.7873c-.058.4384-.292.7696-.721.7793-.217.0195-.432-.0606-.583-.2177-.152-.1571-.224-.3743-.196-.5908-.007-.1967.072-.3866.216-.521.143-.1345.338-.2002.534-.1804.487-.0098.662.3312.75.7306zM35.9683 99.5281c0 .4869-.263.7699-.7014.7889-.1949.035-.3952-.019-.546-.147-.1509-.128-.2365-.3173-.2334-.5153-.0433-.2152.0167-.4383.1621-.6028.1454-.1645.3594-.2515.5783-.235.3978-.0003.7247.3137.7404.7112zM93.3664 71.6567c.412.0159.7362.3574.7306.7696.0196.1967-.046.3923-.18.5375s-.3238.2261-.5214.2224c-.2173.0194-.4317-.0607-.5832-.2178-.1514-.1571-.2235-.3743-.1961-.5908 0-.4773.341-.6527.7501-.7209zM161.471 14.6485c.005.1971-.07.388-.207.5293-.138.1412-.327.2209-.524.2208-.195.0201-.389-.0459-.531-.1807-.143-.1348-.219-.3249-.209-.5207-.035-.2137.032-.4313.181-.5882.149-.1569.363-.2348.578-.2106.439-.0195.673.2727.712.7501zM71.428 20.4158c-.122.07-.2392.1481-.3507.2338-.4286.3799-.8573.3897-1.1787-.0877-.138-.1638-.1909-.3829-.1431-.5916.0479-.2088.1911-.3829.3866-.4702.5163-.2436.8865 0 1.0521.526 0 .1364.1267.2631.1851.3994l.0487-.0097z" fill="#FDCF1B"/><path d="M138.724 70.3321c-.068.4092-.273.7014-.692.6625-.18-.0011-.351-.0799-.468-.2162-.118-.1363-.171-.3167-.146-.495-.01-.1797.06-.3545.192-.477.132-.1224.312-.1797.49-.1562.175.0022.342.0767.46.2059.118.1292.177.3015.164.476zM198.547 49.7769c-.097.4481-.331.7209-.72.6916-.18-.001-.351-.0798-.469-.2161-.117-.1363-.17-.3168-.145-.495-.008-.18.065-.354.199-.4746.134-.1206.314-.1752.493-.1489.428.0098.555.3605.642.643z" fill="#FC1515"/><path d="M119.669 35.5836c0 .3994-.205.6819-.643.6917-.158.0134-.314-.0366-.435-.139-.121-.1024-.196-.2488-.208-.4066-.041-.1765-.001-.3619.108-.5065.109-.1447.276-.2338.457-.2436.419-.0487.643.2046.721.604z" fill="#3991B9"/><path d="M195.45 61.4282c.448 0 .691.302.682.6917.006.1801-.065.3542-.195.4788-.131.1246-.308.1878-.487.1739-.372 0-.673-.301-.673-.6722 0-.3712.301-.6722.673-.6722z" fill="#FC1515"/><path d="M34.4291 86.4059c.1741-.0223.3494.031.4817.1464.1322.1155.2086.282.21.4575.0421.241-.0562.485-.2535.6295-.1973.1445-.4596.1645-.6766.0516-.217-.1129-.3511-.3391-.3461-.5836-.025-.1724.0244-.3473.1359-.481.1115-.1338.2746-.214.4486-.2204z" fill="#3991B9"/><path d="M141.023 51.9593c-.078.3702-.234.6722-.663.6819-.178.0173-.354-.0438-.483-.1673-.129-.1236-.198-.2972-.189-.4757-.02-.1785.039-.3568.16-.4893s.294-.2062.473-.2023c.419-.0292.604.2825.702.6527z" fill="#FC1515"/><path d="M41.0242 116.177c.38.087.6333.311.5943.711.0024.176-.0734.344-.207.459-.1335.114-.311.164-.4847.135-.1755.003-.343-.073-.4563-.207-.1133-.134-.1604-.312-.1282-.485.0048-.173.0805-.337.2094-.453.1289-.116.2997-.174.4725-.16z" fill="#3991B9"/><path d="M87.5214 36.207c.0229.1697-.0298.3409-.1442.4684-.1143.1275-.2789.1984-.4501.194-.1734.0332-.3524-.0152-.4855-.1312s-.2055-.2867-.1964-.463c-.0352-.1724.0091-.3514.1206-.4874s.2783-.2147.4542-.214c.1801-.0228.3611.0341.4959.1557.1347.1217.2097.296.2055.4775z" fill="#FC1515"/><path d="M210.91 60.9118c.318.0501.541.3417.506.6624 0 .2178-.124.4165-.319.5132-.195.0967-.429.0748-.602-.0566-.174-.1314-.258-.3497-.219-.5638.008-.1587.08-.3075.199-.4123.119-.1047.276-.1564.435-.1429zM214.991 55.8655c0-.4286.215-.6624.556-.6721.328 0 .594.266.594.5942 0 .3282-.266.5942-.594.5942-.142.0053-.281-.0462-.385-.143-.104-.0968-.165-.2311-.171-.3733z" fill="#3991B9"/></g><path fill-rule="evenodd" clip-rule="evenodd" d="M186.379 144.446c2.16-.304 3.661-1.257 4.504-2.858.844-1.602 1.045-3.967.606-7.093-.425-3.022-1.282-5.221-2.573-6.597-1.29-1.376-2.987-1.916-5.091-1.621-2.159.304-3.66 1.262-4.501 2.876-.842 1.614-1.042 3.993-.6 7.136.421 2.998 1.275 5.181 2.56 6.549 1.285 1.369 2.984 1.904 5.095 1.608zm-8.425.937l-2.484-17.673-4.303.605-5.374 5.797 2.906 2.698 1.774-1.938c.388-.457.705-.888.953-1.293.084.95.206 1.993.365 3.129l1.315 9.357 4.848-.682zm6.475-5.693c.355.715.826 1.031 1.415.948.596-.084.963-.53 1.1-1.338.137-.808.068-2.187-.206-4.138-.275-1.958-.593-3.312-.953-4.063-.36-.751-.834-1.085-1.423-1.002-.588.083-.954.52-1.097 1.313-.143.793-.074 2.196.21 4.211.28 1.999.598 3.355.954 4.069zm16.456 2.717c2.16-.303 3.661-1.256 4.504-2.858.843-1.602 1.045-3.966.606-7.093-.425-3.022-1.282-5.221-2.573-6.597-1.29-1.376-2.987-1.916-5.091-1.621-2.159.304-3.66 1.263-4.502 2.877-.841 1.614-1.041 3.992-.599 7.135.421 2.998 1.274 5.181 2.56 6.549 1.285 1.369 2.983 1.905 5.095 1.608zm-1.951-4.755c.356.714.827 1.03 1.416.947.596-.084.963-.53 1.1-1.338.137-.808.068-2.187-.206-4.137-.275-1.959-.593-3.313-.953-4.064-.36-.75-.834-1.084-1.423-1.002-.588.083-.954.521-1.097 1.313-.144.793-.074 2.197.209 4.211.281 1.999.599 3.355.954 4.07zm16.457 2.716c2.159-.303 3.661-1.256 4.504-2.858.843-1.602 1.045-3.966.606-7.093-.425-3.022-1.283-5.221-2.573-6.597-1.29-1.376-2.987-1.916-5.091-1.62-2.16.303-3.66 1.262-4.502 2.876-.841 1.614-1.041 3.992-.599 7.135.421 2.998 1.274 5.181 2.56 6.55 1.285 1.368 2.983 1.904 5.095 1.607zm-1.951-4.755c.356.714.827 1.03 1.416.948.596-.084.963-.53 1.1-1.338.137-.809.068-2.188-.206-4.138-.275-1.958-.593-3.313-.953-4.063-.36-.751-.835-1.085-1.423-1.002-.588.082-.954.52-1.097 1.313-.144.792-.074 2.196.209 4.211.281 1.998.599 3.355.954 4.069zm16.457 2.717c2.159-.304 3.661-1.257 4.504-2.858.843-1.602 1.045-3.967.606-7.093-.425-3.022-1.283-5.221-2.573-6.597-1.291-1.376-2.988-1.916-5.091-1.621-2.16.304-3.66 1.262-4.502 2.876-.841 1.614-1.041 3.993-.599 7.136.421 2.998 1.274 5.181 2.559 6.549 1.286 1.369 2.984 1.904 5.096 1.608zm-1.951-4.756c.355.715.827 1.031 1.415.948.597-.084.963-.53 1.101-1.338.137-.808.068-2.187-.206-4.138-.275-1.958-.593-3.312-.953-4.063-.36-.751-.835-1.085-1.423-1.002-.588.083-.954.52-1.097 1.313-.144.793-.074 2.196.209 4.211.281 1.999.599 3.355.954 4.069z" fill="#05293C"/><g><path fill-rule="evenodd" clip-rule="evenodd" d="M155.075 101.89l-.375-2.6705.545-.0766.113.806 1.379-.1937.072.5148-1.378.194.183 1.302c.089.632.368.816.819.752.251-.035.448-.134.62-.29l.08.569c-.204.128-.456.203-.687.235-.778.109-1.244-.238-1.371-1.142zm-5.793.492c-.149-1.062.347-1.705 1.186-1.823.839-.118 1.494.367 1.643 1.426.149 1.062-.347 1.705-1.186 1.823-.839.118-1.494-.367-1.643-1.426zm-1.758 1.907c-.243.034-.452.018-.581-.002l.116.828-.545.077-.551-3.919.545-.077c.12-.049.317-.122.559-.156.903-.127 1.553.413 1.694 1.419.142 1.005-.335 1.703-1.237 1.83zm-.189-.483c.743-.104.96-.621.869-1.272-.092-.651-.444-1.089-1.186-.987-.161.022-.305.068-.441.139l.297 2.114c.149.024.301.029.461.006zm3.52-.494c-.575.081-.917-.326-1.013-1.009-.096-.682.12-1.167.696-1.248.575-.081.917.326 1.013 1.008.099.683-.12 1.168-.696 1.249zm2.334-2.472l-.081-.575-.545.077.435 3.1.546-.076-.202-1.432c-.126-.898.21-1.187.856-1.277l.233-.033-.075-.534-.233.033c-.606.085-.838.369-.907.714l-.027.003zm6.483-.505c-.103-.7361-.686-.9701-1.407-.8687-.351.0493-.656.1695-.866.344l.084.6007c.172-.208.449-.392.846-.4477.463-.0651.745.0987.803.5057l.021.149-.743.23c-.634.195-1.047.489-.96 1.102.092.657.635.852 1.335.753.236-.033.441-.094.631-.166l.551-.077-.298-2.124.003-.001zm-1.678 1.558c.039.278.27.403.722.34.254-.036.535-.127.638-.183l-.138-.98-.688.222c-.349.114-.577.291-.534.601zm2.83-3.5342l-.545.0766.436 3.1006c.08.569.393.818.923.744.136-.019.252-.055.349-.107l-.069-.497c-.077.05-.177.083-.277.097-.215.031-.338-.033-.381-.333l-.433-3.0816-.003.0004zm2.598 3.6932c-.397.055-.815.027-1.106-.109l-.084-.598c.254.155.676.279 1.144.207.446-.063.631-.26.594-.525-.038-.272-.263-.331-.656-.356l-.146-.012c-.559-.04-1.019-.172-1.104-.7791-.092-.651.369-.9994 1.099-1.102.339-.0477.693-.033.951.0436l.084.6005c-.23-.1255-.593-.2002-.996-.1436-.433.0609-.627.2396-.591.4988.038.2718.263.3308.656.3558l.146.012c.559.04 1.019.172 1.105.786.093.657-.366 1.018-1.096 1.121z" fill="#247BA0"/><path fill-rule="evenodd" clip-rule="evenodd" d="M133.918 104.864l-.375-2.671.548-.077.114.806 1.378-.194.072.515-1.381.195.183 1.302c.089.632.368.815.819.752.252-.036.448-.134.62-.291l.08.569c-.204.129-.456.203-.686.235-.779.11-1.245-.237-1.372-1.141zm-1.709 1.574c-.397.056-.814.028-1.105-.109l-.084-.597c.253.155.675.279 1.144.207.445-.063.63-.26.593-.525-.038-.272-.262-.328-.655-.356l-.147-.012c-.559-.04-1.019-.172-1.104-.779-.092-.651.369-1 1.099-1.102.339-.048.693-.033.951.043l.085.601c-.231-.126-.594-.2-.997-.144-.433.061-.627.24-.59.499.038.272.262.331.655.356l.147.012c.558.04 1.019.172 1.105.785.092.658-.367 1.019-1.097 1.121zm6.451-4.142l-.545.076.367 2.611c-.161.068-.348.12-.548.148-.748.105-.871-.245-.965-.909l-.232-1.656-.545.077.239 1.703c.126.898.422 1.44 1.454 1.295.297-.042.53-.12.668-.172l.545-.076-.435-3.098-.003.001zm2.17-.383c.243-.034.452-.018.581.003l-.114-.813.545-.076.549 3.903-.545.077c-.12.049-.317.122-.559.156-.903.126-1.553-.414-1.694-1.419-.142-1.005.335-1.704 1.237-1.831zm-.68 1.753c-.092-.651.126-1.169.868-1.273.161-.022.313-.018.461.006l.297 2.115c-.135.07-.28.116-.44.139-.743.101-1.095-.336-1.186-.987zm4.519.947l.115.819-.548.077-.115-.819c-.82-.665-1.307-1.669-1.529-2.947l.551-.077c.182 1.076.546 1.883 1.186 2.528l.024-.004c.441-.797.565-1.675.444-2.757l.53-.074c.138 1.289-.053 2.392-.658 3.254z" fill="#F95C39"/><mask id="a" maskUnits="userSpaceOnUse" x="122" y="101" width="8" height="8"><path fill-rule="evenodd" clip-rule="evenodd" d="M122.101 102.422l6.124-.861.855 6.086-6.124.86-.855-6.085z" fill="#fff"/></mask><g mask="url(#a)"><path d="M122.37 104.295l.039.275.475-.067c.02.139.437 3.107.437 3.107l.557-.078-.453-3.227c.445-.214 1.016-.439 1.631-.571.04.288.501 3.565.501 3.565l.696-.098s-.461-3.284-.501-3.565c.627-.046 1.238.013 1.728.096l-.003.003.454 3.231.558-.079s-.417-2.968-.437-3.107l.476-.067-.039-.274s-1.614-.538-3.168-.319c-1.553.218-2.951 1.175-2.951 1.175" fill="#247BA0"/></g><mask id="b" maskUnits="userSpaceOnUse" x="122" y="101" width="8" height="8"><path fill-rule="evenodd" clip-rule="evenodd" d="M122.101 102.422l6.124-.861.855 6.086-6.124.86-.855-6.085z" fill="#fff"/></mask><g mask="url(#b)"><path d="M128.444 103.139s-1.584-.542-3.168-.319c-1.584.223-2.954 1.179-2.954 1.179l-.072-.515 2.91-1.492 3.208.632.076.515" fill="#F95C39"/></g><g><mask id="c" maskUnits="userSpaceOnUse" x="122" y="101" width="8" height="8"><path fill-rule="evenodd" clip-rule="evenodd" d="M122.101 102.422l6.124-.861.855 6.086-6.124.86-.855-6.085z" fill="#fff"/></mask><g mask="url(#c)"><path d="M122.962 108.507l6.118-.86-.073-.523-6.119.86.074.523z" fill="#247BA0"/></g></g></g><defs><filter id="filter0_d" x="146.802" y="5.00488" width="47.6439" height="75.9581" filterUnits="userSpaceOnUse" color-interpolation-filters="sRGB"><feFlood flood-opacity="0" result="BackgroundImageFix"/><feColorMatrix in="SourceAlpha" values="0 0 0 0 0 0 0 0 0 0 0 0 0 0 0 0 0 0 127 0"/><feOffset dx="-1" dy="-2"/><feGaussianBlur stdDeviation="2"/><feColorMatrix values="0 0 0 0 0.105882 0 0 0 0 0.352941 0 0 0 0 0.458824 0 0 0 0.15 0"/><feBlend in2="BackgroundImageFix" result="effect1_dropShadow"/><feBlend in="SourceGraphic" in2="effect1_dropShadow" result="shape"/></filter><filter id="filter1_d" x="71.8118" y="74.96" width="192.19" height="86.0632" filterUnits="userSpaceOnUse" color-interpolation-filters="sRGB"><feFlood flood-opacity="0" result="BackgroundImageFix"/><feColorMatrix in="SourceAlpha" values="0 0 0 0 0 0 0 0 0 0 0 0 0 0 0 0 0 0 127 0"/><feOffset dx="1" dy="-1"/><feGaussianBlur stdDeviation="2.5"/><feColorMatrix values="0 0 0 0 0.105882 0 0 0 0 0.352941 0 0 0 0 0.458824 0 0 0 0.2 0"/><feBlend in2="BackgroundImageFix" result="effect1_dropShadow"/><feBlend in="SourceGraphic" in2="effect1_dropShadow" result="shape"/></filter></defs></svg>